<?xml version="1.0" encoding="UTF-8"?>
<svg xmlns="http://www.w3.org/2000/svg" xmlns:xlink="http://www.w3.org/1999/xlink" width="363pt" height="240pt" viewBox="0 0 363 240" version="1.1">
<g id="surface1">
<path style="fill:none;stroke-width:1;stroke-linecap:round;stroke-linejoin:round;stroke:rgb(0%,0%,0%);stroke-opacity:1;stroke-miterlimit:10;" d="M 41 173.609375 L 41 43.4 " transform="matrix(1.25,0,0,1.25,-7.5,-13.75)"/>
<path style="fill:none;stroke-width:1;stroke-linecap:butt;stroke-linejoin:miter;stroke:rgb(0%,0%,0%);stroke-opacity:1;stroke-miterlimit:10;" d="M 41 39.4 L 41 43.4 M 39.5 43.4 L 41 39.4 L 42.5 43.4 " transform="matrix(1.25,0,0,1.25,-7.5,-13.75)"/>
<path style="fill:none;stroke-width:1;stroke-linecap:round;stroke-linejoin:round;stroke:rgb(0%,0%,0%);stroke-opacity:1;stroke-miterlimit:10;" d="M 41 174.109375 L 275.1 173.625 " transform="matrix(1.25,0,0,1.25,-7.5,-13.75)"/>
<path style="fill:none;stroke-width:1;stroke-linecap:butt;stroke-linejoin:miter;stroke:rgb(0%,0%,0%);stroke-opacity:1;stroke-miterlimit:10;" d="M 279.1 173.61875 L 275.1 173.625 M 275.096875 172.125 L 279.1 173.61875 L 275.1 175.125 " transform="matrix(1.25,0,0,1.25,-7.5,-13.75)"/>
<path style=" stroke:none;fill-rule:nonzero;fill:rgb(0%,0%,0%);fill-opacity:1;" d="M 8.3125 49.816406 L 8.3125 41.769531 L 9.386719 41.769531 L 9.386719 48.859375 L 13.351562 48.859375 L 13.351562 49.816406 Z M 8.3125 49.816406 "/>
<path style=" stroke:none;fill-rule:nonzero;fill:rgb(0%,0%,0%);fill-opacity:1;" d="M 14.121094 46.90625 C 14.121094 45.828125 14.417969 45.027344 15.019531 44.503906 C 15.527344 44.074219 16.136719 43.859375 16.855469 43.859375 C 17.660156 43.859375 18.320312 44.121094 18.828125 44.640625 C 19.335938 45.164062 19.589844 45.886719 19.589844 46.808594 C 19.589844 47.566406 19.472656 48.15625 19.238281 48.585938 C 19.015625 49.015625 18.691406 49.355469 18.261719 49.601562 C 17.832031 49.835938 17.363281 49.953125 16.855469 49.953125 C 16.035156 49.953125 15.371094 49.695312 14.863281 49.171875 C 14.367188 48.640625 14.121094 47.882812 14.121094 46.90625 Z M 15.136719 46.90625 C 15.136719 47.648438 15.296875 48.210938 15.625 48.585938 C 15.949219 48.953125 16.359375 49.132812 16.855469 49.132812 C 17.347656 49.132812 17.757812 48.953125 18.085938 48.585938 C 18.410156 48.210938 18.574219 47.636719 18.574219 46.867188 C 18.574219 46.152344 18.410156 45.605469 18.085938 45.226562 C 17.757812 44.851562 17.347656 44.660156 16.855469 44.660156 C 16.359375 44.660156 15.949219 44.851562 15.625 45.226562 C 15.296875 45.59375 15.136719 46.152344 15.136719 46.90625 Z M 15.136719 46.90625 "/>
<path style=" stroke:none;fill-rule:nonzero;fill:rgb(0%,0%,0%);fill-opacity:1;" d="M 20.359375 48.078125 L 21.335938 47.921875 C 21.382812 48.3125 21.535156 48.613281 21.785156 48.820312 C 22.042969 49.03125 22.394531 49.132812 22.839844 49.132812 C 23.292969 49.132812 23.628906 49.042969 23.855469 48.859375 C 24.074219 48.679688 24.1875 48.464844 24.1875 48.214844 C 24.1875 47.980469 24.089844 47.804688 23.894531 47.6875 C 23.746094 47.597656 23.410156 47.480469 22.878906 47.335938 C 22.144531 47.15625 21.636719 47 21.355469 46.867188 C 21.082031 46.738281 20.871094 46.554688 20.730469 46.320312 C 20.582031 46.085938 20.515625 45.828125 20.515625 45.539062 C 20.515625 45.28125 20.574219 45.039062 20.691406 44.816406 C 20.808594 44.597656 20.96875 44.40625 21.179688 44.25 C 21.335938 44.148438 21.539062 44.054688 21.804688 43.976562 C 22.078125 43.898438 22.359375 43.859375 22.664062 43.859375 C 23.117188 43.859375 23.511719 43.925781 23.855469 44.054688 C 24.207031 44.1875 24.464844 44.363281 24.636719 44.582031 C 24.800781 44.804688 24.917969 45.105469 24.988281 45.480469 L 24.011719 45.617188 C 23.972656 45.320312 23.839844 45.085938 23.621094 44.914062 C 23.410156 44.746094 23.117188 44.660156 22.742188 44.660156 C 22.28125 44.660156 21.960938 44.738281 21.765625 44.894531 C 21.570312 45.039062 21.472656 45.214844 21.472656 45.421875 C 21.472656 45.554688 21.511719 45.664062 21.589844 45.753906 C 21.667969 45.871094 21.792969 45.964844 21.980469 46.027344 C 22.066406 46.066406 22.355469 46.152344 22.839844 46.28125 C 23.542969 46.464844 24.03125 46.613281 24.304688 46.730469 C 24.585938 46.847656 24.8125 47.023438 24.96875 47.257812 C 25.125 47.480469 25.203125 47.761719 25.203125 48.097656 C 25.203125 48.4375 25.105469 48.75 24.910156 49.035156 C 24.714844 49.324219 24.429688 49.550781 24.070312 49.71875 C 23.71875 49.875 23.308594 49.953125 22.839844 49.953125 C 22.082031 49.953125 21.5 49.796875 21.101562 49.484375 C 20.710938 49.160156 20.460938 48.691406 20.359375 48.078125 Z M 20.359375 48.078125 "/>
<path style=" stroke:none;fill-rule:nonzero;fill:rgb(0%,0%,0%);fill-opacity:1;" d="M 25.984375 48.078125 L 26.960938 47.921875 C 27.007812 48.3125 27.160156 48.613281 27.410156 48.820312 C 27.667969 49.03125 28.019531 49.132812 28.464844 49.132812 C 28.917969 49.132812 29.253906 49.042969 29.480469 48.859375 C 29.699219 48.679688 29.8125 48.464844 29.8125 48.214844 C 29.8125 47.980469 29.714844 47.804688 29.519531 47.6875 C 29.371094 47.597656 29.035156 47.480469 28.503906 47.335938 C 27.769531 47.15625 27.261719 47 26.980469 46.867188 C 26.707031 46.738281 26.496094 46.554688 26.355469 46.320312 C 26.207031 46.085938 26.140625 45.828125 26.140625 45.539062 C 26.140625 45.28125 26.199219 45.039062 26.316406 44.816406 C 26.433594 44.597656 26.59375 44.40625 26.804688 44.25 C 26.960938 44.148438 27.164062 44.054688 27.429688 43.976562 C 27.703125 43.898438 27.984375 43.859375 28.289062 43.859375 C 28.742188 43.859375 29.136719 43.925781 29.480469 44.054688 C 29.832031 44.1875 30.089844 44.363281 30.261719 44.582031 C 30.425781 44.804688 30.542969 45.105469 30.613281 45.480469 L 29.636719 45.617188 C 29.597656 45.320312 29.464844 45.085938 29.246094 44.914062 C 29.035156 44.746094 28.742188 44.660156 28.367188 44.660156 C 27.90625 44.660156 27.585938 44.738281 27.390625 44.894531 C 27.195312 45.039062 27.097656 45.214844 27.097656 45.421875 C 27.097656 45.554688 27.136719 45.664062 27.214844 45.753906 C 27.292969 45.871094 27.417969 45.964844 27.605469 46.027344 C 27.691406 46.066406 27.980469 46.152344 28.464844 46.28125 C 29.167969 46.464844 29.65625 46.613281 29.929688 46.730469 C 30.210938 46.847656 30.4375 47.023438 30.59375 47.257812 C 30.75 47.480469 30.828125 47.761719 30.828125 48.097656 C 30.828125 48.4375 30.730469 48.75 30.535156 49.035156 C 30.339844 49.324219 30.054688 49.550781 29.695312 49.71875 C 29.34375 49.875 28.933594 49.953125 28.464844 49.953125 C 27.707031 49.953125 27.125 49.796875 26.726562 49.484375 C 26.335938 49.160156 26.085938 48.691406 25.984375 48.078125 Z M 25.984375 48.078125 "/>
<path style=" stroke:none;fill-rule:nonzero;fill:rgb(0%,0%,0%);fill-opacity:1;" d="M 264.292969 220.238281 L 264.292969 228.265625 L 265.230469 228.265625 L 265.230469 221.878906 L 265.25 221.878906 L 268.042969 228.265625 L 268.863281 228.265625 L 271.65625 221.878906 L 271.675781 221.878906 L 271.675781 228.265625 L 272.613281 228.265625 L 272.613281 220.238281 L 271.460938 220.238281 L 268.472656 227.09375 L 268.433594 227.09375 L 265.445312 220.238281 Z M 264.292969 220.238281 "/>
<path style=" stroke:none;fill-rule:nonzero;fill:rgb(0%,0%,0%);fill-opacity:1;" d="M 276.714844 222.289062 C 275.835938 222.289062 275.152344 222.582031 274.625 223.1875 C 274.136719 223.773438 273.882812 224.476562 273.882812 225.355469 C 273.882812 226.234375 274.136719 226.957031 274.625 227.503906 C 275.152344 228.128906 275.835938 228.421875 276.714844 228.421875 C 277.574219 228.421875 278.277344 228.128906 278.804688 227.503906 C 279.292969 226.957031 279.527344 226.234375 279.527344 225.355469 C 279.527344 224.476562 279.292969 223.773438 278.785156 223.1875 C 278.277344 222.582031 277.574219 222.289062 276.714844 222.289062 Z M 276.714844 223.050781 C 277.320312 223.050781 277.808594 223.285156 278.160156 223.753906 C 278.472656 224.183594 278.628906 224.710938 278.628906 225.355469 C 278.628906 226 278.472656 226.527344 278.160156 226.957031 C 277.808594 227.425781 277.320312 227.660156 276.714844 227.660156 C 276.089844 227.660156 275.601562 227.425781 275.269531 226.957031 C 274.957031 226.527344 274.800781 226 274.800781 225.355469 C 274.800781 224.710938 274.957031 224.183594 275.269531 223.753906 C 275.601562 223.285156 276.089844 223.050781 276.714844 223.050781 Z M 276.714844 223.050781 "/>
<path style=" stroke:none;fill-rule:nonzero;fill:rgb(0%,0%,0%);fill-opacity:1;" d="M 285.007812 220.082031 L 285.007812 223.519531 C 284.558594 222.699219 283.914062 222.289062 283.074219 222.289062 C 282.253906 222.289062 281.609375 222.601562 281.140625 223.226562 C 280.691406 223.792969 280.476562 224.476562 280.476562 225.335938 C 280.476562 226.214844 280.691406 226.9375 281.140625 227.503906 C 281.609375 228.109375 282.273438 228.421875 283.132812 228.421875 C 283.992188 228.421875 284.65625 228.050781 285.066406 227.308594 L 285.066406 228.265625 L 285.90625 228.265625 L 285.90625 220.082031 Z M 283.269531 223.03125 C 283.796875 223.03125 284.207031 223.246094 284.539062 223.65625 C 284.851562 224.085938 285.027344 224.632812 285.027344 225.316406 L 285.027344 225.414062 C 285.027344 226.078125 284.871094 226.605469 284.597656 226.996094 C 284.265625 227.464844 283.816406 227.679688 283.230469 227.679688 C 282.605469 227.679688 282.136719 227.445312 281.824219 226.996094 C 281.53125 226.585938 281.394531 226.039062 281.394531 225.335938 C 281.394531 224.652344 281.53125 224.105469 281.824219 223.714844 C 282.136719 223.265625 282.625 223.03125 283.269531 223.03125 Z M 283.269531 223.03125 "/>
<path style=" stroke:none;fill-rule:nonzero;fill:rgb(0%,0%,0%);fill-opacity:1;" d="M 289.683594 222.289062 C 288.84375 222.289062 288.179688 222.601562 287.691406 223.207031 C 287.203125 223.773438 286.949219 224.496094 286.949219 225.355469 C 286.949219 226.292969 287.203125 227.035156 287.730469 227.601562 C 288.21875 228.148438 288.902344 228.421875 289.722656 228.421875 C 290.484375 228.421875 291.089844 228.207031 291.578125 227.777344 C 291.96875 227.40625 292.242188 226.957031 292.359375 226.390625 L 291.460938 226.390625 C 291.324219 226.800781 291.128906 227.113281 290.875 227.308594 C 290.582031 227.542969 290.191406 227.660156 289.722656 227.660156 C 289.175781 227.660156 288.726562 227.484375 288.414062 227.132812 C 288.101562 226.761719 287.945312 226.253906 287.886719 225.609375 L 292.476562 225.609375 C 292.457031 224.59375 292.242188 223.792969 291.8125 223.246094 C 291.324219 222.601562 290.621094 222.289062 289.683594 222.289062 Z M 289.722656 223.050781 C 290.816406 223.050781 291.441406 223.65625 291.539062 224.90625 L 287.90625 224.90625 C 287.964844 224.339844 288.140625 223.890625 288.472656 223.558594 C 288.785156 223.207031 289.195312 223.050781 289.722656 223.050781 Z M 289.722656 223.050781 "/>
<path style=" stroke:none;fill-rule:nonzero;fill:rgb(0%,0%,0%);fill-opacity:1;" d="M 293.722656 220.082031 L 293.722656 228.265625 L 294.601562 228.265625 L 294.601562 220.082031 Z M 293.722656 220.082031 "/>
<path style=" stroke:none;fill-rule:nonzero;fill:rgb(0%,0%,0%);fill-opacity:1;" d="M 302.4375 222.289062 C 301.578125 222.289062 300.894531 222.601562 300.386719 223.207031 C 299.9375 223.773438 299.703125 224.496094 299.703125 225.394531 C 299.703125 226.273438 299.9375 226.996094 300.386719 227.542969 C 300.875 228.128906 301.558594 228.421875 302.4375 228.421875 C 303.140625 228.421875 303.726562 228.226562 304.15625 227.855469 C 304.605469 227.484375 304.898438 226.898438 305.035156 226.15625 L 304.136719 226.15625 C 304 227.171875 303.414062 227.660156 302.4375 227.660156 C 301.851562 227.660156 301.402344 227.464844 301.089844 227.054688 C 300.777344 226.644531 300.621094 226.078125 300.621094 225.375 C 300.621094 224.671875 300.777344 224.105469 301.109375 223.695312 C 301.421875 223.265625 301.871094 223.050781 302.4375 223.050781 C 302.90625 223.050781 303.277344 223.148438 303.570312 223.363281 C 303.84375 223.597656 304.019531 223.929688 304.097656 224.378906 L 304.996094 224.378906 C 304.898438 223.675781 304.625 223.148438 304.175781 222.796875 C 303.726562 222.464844 303.160156 222.289062 302.4375 222.289062 Z M 302.4375 222.289062 "/>
<path style=" stroke:none;fill-rule:nonzero;fill:rgb(0%,0%,0%);fill-opacity:1;" d="M 308.6875 222.289062 C 307.808594 222.289062 307.125 222.582031 306.597656 223.1875 C 306.109375 223.773438 305.855469 224.476562 305.855469 225.355469 C 305.855469 226.234375 306.109375 226.957031 306.597656 227.503906 C 307.125 228.128906 307.808594 228.421875 308.6875 228.421875 C 309.546875 228.421875 310.25 228.128906 310.777344 227.503906 C 311.265625 226.957031 311.5 226.234375 311.5 225.355469 C 311.5 224.476562 311.265625 223.773438 310.757812 223.1875 C 310.25 222.582031 309.546875 222.289062 308.6875 222.289062 Z M 308.6875 223.050781 C 309.292969 223.050781 309.78125 223.285156 310.132812 223.753906 C 310.445312 224.183594 310.601562 224.710938 310.601562 225.355469 C 310.601562 226 310.445312 226.527344 310.132812 226.957031 C 309.78125 227.425781 309.292969 227.660156 308.6875 227.660156 C 308.0625 227.660156 307.574219 227.425781 307.242188 226.957031 C 306.929688 226.527344 306.773438 226 306.773438 225.355469 C 306.773438 224.710938 306.929688 224.183594 307.242188 223.753906 C 307.574219 223.285156 308.0625 223.050781 308.6875 223.050781 Z M 308.6875 223.050781 "/>
<path style=" stroke:none;fill-rule:nonzero;fill:rgb(0%,0%,0%);fill-opacity:1;" d="M 315.222656 222.289062 C 314.558594 222.289062 314.011719 222.601562 313.582031 223.226562 L 313.582031 222.445312 L 312.683594 222.445312 L 312.683594 228.265625 L 313.582031 228.265625 L 313.582031 224.730469 C 313.582031 224.261719 313.71875 223.871094 313.992188 223.558594 C 314.246094 223.207031 314.597656 223.050781 315.007812 223.050781 C 315.886719 223.050781 316.335938 223.558594 316.335938 224.59375 L 316.335938 228.265625 L 317.253906 228.265625 L 317.253906 224.613281 C 317.253906 224.144531 317.371094 223.773438 317.644531 223.480469 C 317.878906 223.1875 318.210938 223.050781 318.601562 223.050781 C 319.089844 223.050781 319.441406 223.1875 319.675781 223.441406 C 319.890625 223.695312 320.007812 224.085938 320.007812 224.59375 L 320.007812 228.265625 L 320.90625 228.265625 L 320.90625 224.457031 C 320.90625 223.792969 320.710938 223.265625 320.359375 222.875 C 319.96875 222.484375 319.480469 222.289062 318.875 222.289062 C 318.464844 222.289062 318.132812 222.386719 317.859375 222.5625 C 317.546875 222.738281 317.273438 223.011719 317.039062 223.402344 C 316.707031 222.660156 316.101562 222.289062 315.222656 222.289062 Z M 315.222656 222.289062 "/>
<path style=" stroke:none;fill-rule:nonzero;fill:rgb(0%,0%,0%);fill-opacity:1;" d="M 325.074219 222.289062 C 324.195312 222.289062 323.550781 222.660156 323.140625 223.402344 L 323.140625 222.445312 L 322.300781 222.445312 L 322.300781 230.492188 L 323.199219 230.492188 L 323.199219 227.210938 C 323.648438 228.011719 324.292969 228.421875 325.113281 228.421875 C 325.953125 228.421875 326.597656 228.109375 327.066406 227.503906 C 327.496094 226.9375 327.710938 226.234375 327.710938 225.375 C 327.710938 224.496094 327.496094 223.792969 327.046875 223.226562 C 326.578125 222.601562 325.914062 222.289062 325.074219 222.289062 Z M 324.957031 223.03125 C 325.582031 223.03125 326.050781 223.265625 326.382812 223.734375 C 326.65625 224.144531 326.792969 224.691406 326.792969 225.375 C 326.792969 226.078125 326.65625 226.625 326.363281 227.035156 C 326.03125 227.464844 325.5625 227.679688 324.917969 227.679688 C 324.390625 227.679688 323.980469 227.464844 323.648438 227.054688 C 323.316406 226.644531 323.160156 226.097656 323.160156 225.433594 L 323.160156 225.316406 C 323.160156 224.671875 323.316406 224.125 323.609375 223.714844 C 323.921875 223.265625 324.371094 223.03125 324.957031 223.03125 Z M 324.957031 223.03125 "/>
<path style=" stroke:none;fill-rule:nonzero;fill:rgb(0%,0%,0%);fill-opacity:1;" d="M 329.070312 220.082031 L 329.070312 228.265625 L 329.949219 228.265625 L 329.949219 220.082031 Z M 329.070312 220.082031 "/>
<path style=" stroke:none;fill-rule:nonzero;fill:rgb(0%,0%,0%);fill-opacity:1;" d="M 333.921875 222.289062 C 333.082031 222.289062 332.417969 222.601562 331.929688 223.207031 C 331.441406 223.773438 331.1875 224.496094 331.1875 225.355469 C 331.1875 226.292969 331.441406 227.035156 331.96875 227.601562 C 332.457031 228.148438 333.140625 228.421875 333.960938 228.421875 C 334.722656 228.421875 335.328125 228.207031 335.816406 227.777344 C 336.207031 227.40625 336.480469 226.957031 336.597656 226.390625 L 335.699219 226.390625 C 335.5625 226.800781 335.367188 227.113281 335.113281 227.308594 C 334.820312 227.542969 334.429688 227.660156 333.960938 227.660156 C 333.414062 227.660156 332.964844 227.484375 332.652344 227.132812 C 332.339844 226.761719 332.183594 226.253906 332.125 225.609375 L 336.714844 225.609375 C 336.695312 224.59375 336.480469 223.792969 336.050781 223.246094 C 335.5625 222.601562 334.859375 222.289062 333.921875 222.289062 Z M 333.960938 223.050781 C 335.054688 223.050781 335.679688 223.65625 335.777344 224.90625 L 332.144531 224.90625 C 332.203125 224.339844 332.378906 223.890625 332.710938 223.558594 C 333.023438 223.207031 333.433594 223.050781 333.960938 223.050781 Z M 333.960938 223.050781 "/>
<path style=" stroke:none;fill-rule:nonzero;fill:rgb(0%,0%,0%);fill-opacity:1;" d="M 337.390625 222.445312 L 339.441406 225.179688 L 337.136719 228.265625 L 338.210938 228.265625 L 339.949219 225.84375 L 341.6875 228.265625 L 342.742188 228.265625 L 340.4375 225.179688 L 342.507812 222.445312 L 341.433594 222.445312 L 339.949219 224.515625 L 338.445312 222.445312 Z M 337.390625 222.445312 "/>
<path style=" stroke:none;fill-rule:nonzero;fill:rgb(0%,0%,0%);fill-opacity:1;" d="M 344.25 220.257812 C 344.054688 220.257812 343.898438 220.316406 343.761719 220.453125 C 343.625 220.550781 343.566406 220.726562 343.566406 220.921875 C 343.566406 221.117188 343.625 221.273438 343.761719 221.410156 C 343.898438 221.527344 344.054688 221.585938 344.25 221.585938 C 344.445312 221.585938 344.601562 221.527344 344.71875 221.410156 C 344.855469 221.273438 344.933594 221.117188 344.933594 220.921875 C 344.933594 220.726562 344.855469 220.550781 344.71875 220.453125 C 344.601562 220.316406 344.445312 220.257812 344.25 220.257812 Z M 343.800781 222.445312 L 343.800781 228.265625 L 344.699219 228.265625 L 344.699219 222.445312 Z M 343.800781 222.445312 "/>
<path style=" stroke:none;fill-rule:nonzero;fill:rgb(0%,0%,0%);fill-opacity:1;" d="M 347.929688 220.570312 L 347.050781 220.941406 L 347.050781 222.445312 L 345.878906 222.445312 L 345.878906 223.207031 L 347.050781 223.207031 L 347.050781 226.898438 C 347.050781 227.347656 347.128906 227.660156 347.324219 227.894531 C 347.519531 228.148438 347.871094 228.265625 348.359375 228.265625 L 349.21875 228.265625 L 349.21875 227.503906 L 348.476562 227.503906 C 348.28125 227.503906 348.144531 227.464844 348.066406 227.367188 C 347.96875 227.269531 347.929688 227.113281 347.929688 226.898438 L 347.929688 223.207031 L 349.375 223.207031 L 349.375 222.445312 L 347.929688 222.445312 Z M 347.929688 220.570312 "/>
<path style=" stroke:none;fill-rule:nonzero;fill:rgb(0%,0%,0%);fill-opacity:1;" d="M 349.738281 222.445312 L 352.042969 228.128906 L 351.046875 230.492188 L 352.023438 230.492188 L 355.207031 222.445312 L 354.210938 222.445312 L 352.492188 227.035156 L 350.714844 222.445312 Z M 349.738281 222.445312 "/>
<path style="fill:none;stroke-width:1;stroke-linecap:round;stroke-linejoin:round;stroke:rgb(0%,0%,0%);stroke-opacity:1;stroke-miterlimit:10;" d="M 57.5 47 C 57.5 47 69.175 98.13125 128.996875 131.5875 C 188.815625 165.034375 268.65625 165.08125 268.65625 165.08125 " transform="matrix(1.25,0,0,1.25,-7.5,-13.75)"/>
<path style="fill:none;stroke-width:1;stroke-linecap:round;stroke-linejoin:round;stroke:rgb(0%,0%,0%);stroke-opacity:1;stroke-miterlimit:10;" d="M 57.5 37.5 C 57.5 37.5 67.471875 87.003125 127.29375 98.23125 C 187.1125 109.4625 268.65625 77.1375 268.65625 77.1375 " transform="matrix(1.25,0,0,1.25,-7.5,-13.75)"/>
<path style=" stroke:none;fill-rule:nonzero;fill:rgb(0%,0%,0%);fill-opacity:1;" d="M 250.734375 116.097656 L 250.734375 115.160156 L 254.152344 115.160156 L 254.152344 118.148438 C 253.628906 118.566406 253.089844 118.878906 252.53125 119.085938 C 251.96875 119.289062 251.398438 119.398438 250.8125 119.398438 C 250.03125 119.398438 249.3125 119.230469 248.664062 118.890625 C 248.011719 118.550781 247.523438 118.0625 247.199219 117.425781 C 246.871094 116.789062 246.710938 116.070312 246.710938 115.277344 C 246.710938 114.496094 246.871094 113.765625 247.199219 113.089844 C 247.523438 112.398438 247.992188 111.890625 248.605469 111.566406 C 249.230469 111.242188 249.9375 111.078125 250.734375 111.078125 C 251.320312 111.078125 251.847656 111.175781 252.316406 111.371094 C 252.785156 111.554688 253.148438 111.8125 253.410156 112.152344 C 253.683594 112.476562 253.890625 112.914062 254.035156 113.460938 L 253.078125 113.714844 C 252.945312 113.3125 252.789062 112.992188 252.609375 112.757812 C 252.4375 112.523438 252.183594 112.335938 251.847656 112.191406 C 251.519531 112.046875 251.148438 111.976562 250.734375 111.976562 C 250.25 111.976562 249.828125 112.054688 249.464844 112.210938 C 249.113281 112.355469 248.824219 112.550781 248.605469 112.796875 C 248.394531 113.03125 248.234375 113.292969 248.117188 113.578125 C 247.90625 114.085938 247.804688 114.625 247.804688 115.199219 C 247.804688 115.929688 247.925781 116.535156 248.175781 117.015625 C 248.421875 117.496094 248.78125 117.855469 249.25 118.089844 C 249.71875 118.324219 250.21875 118.441406 250.753906 118.441406 C 251.222656 118.441406 251.671875 118.355469 252.101562 118.1875 C 252.542969 118.003906 252.882812 117.808594 253.117188 117.601562 L 253.117188 116.097656 Z M 250.734375 116.097656 "/>
<path style=" stroke:none;fill-rule:nonzero;fill:rgb(0%,0%,0%);fill-opacity:1;" d="M 259.582031 117.386719 L 260.617188 117.503906 C 260.445312 118.101562 260.140625 118.570312 259.699219 118.910156 C 259.269531 119.234375 258.714844 119.398438 258.039062 119.398438 C 257.191406 119.398438 256.515625 119.136719 256.007812 118.617188 C 255.511719 118.082031 255.265625 117.339844 255.265625 116.390625 C 255.265625 115.414062 255.519531 114.660156 256.027344 114.125 C 256.535156 113.578125 257.191406 113.304688 258 113.304688 C 258.78125 113.304688 259.410156 113.570312 259.894531 114.105469 C 260.386719 114.625 260.636719 115.367188 260.636719 116.332031 C 260.636719 116.398438 260.636719 116.488281 260.636719 116.605469 L 256.28125 116.605469 C 256.320312 117.242188 256.5 117.730469 256.828125 118.070312 C 257.152344 118.410156 257.5625 118.578125 258.058594 118.578125 C 258.421875 118.578125 258.726562 118.488281 258.976562 118.304688 C 259.234375 118.109375 259.4375 117.804688 259.582031 117.386719 Z M 256.339844 115.785156 L 259.601562 115.785156 C 259.5625 115.289062 259.4375 114.917969 259.230469 114.671875 C 258.917969 114.292969 258.507812 114.105469 258 114.105469 C 257.542969 114.105469 257.160156 114.261719 256.847656 114.574219 C 256.546875 114.875 256.378906 115.277344 256.339844 115.785156 Z M 256.339844 115.785156 "/>
<path style=" stroke:none;fill-rule:nonzero;fill:rgb(0%,0%,0%);fill-opacity:1;" d="M 261.855469 119.261719 L 261.855469 113.421875 L 262.753906 113.421875 L 262.753906 114.261719 C 263.167969 113.625 263.789062 113.304688 264.609375 113.304688 C 264.960938 113.304688 265.277344 113.371094 265.566406 113.5 C 265.863281 113.617188 266.082031 113.78125 266.230469 113.988281 C 266.371094 114.183594 266.472656 114.425781 266.542969 114.710938 C 266.582031 114.894531 266.601562 115.210938 266.601562 115.667969 L 266.601562 119.261719 L 265.605469 119.261719 L 265.605469 115.707031 C 265.605469 115.304688 265.566406 115.003906 265.488281 114.808594 C 265.410156 114.613281 265.273438 114.457031 265.078125 114.339844 C 264.882812 114.210938 264.652344 114.144531 264.394531 114.144531 C 263.972656 114.144531 263.613281 114.28125 263.300781 114.554688 C 262.996094 114.816406 262.851562 115.324219 262.851562 116.078125 L 262.851562 119.261719 Z M 261.855469 119.261719 "/>
<path style=" stroke:none;fill-rule:nonzero;fill:rgb(0%,0%,0%);fill-opacity:1;" d="M 272.097656 117.386719 L 273.132812 117.503906 C 272.960938 118.101562 272.652344 118.570312 272.214844 118.910156 C 271.785156 119.234375 271.226562 119.398438 270.554688 119.398438 C 269.703125 119.398438 269.03125 119.136719 268.523438 118.617188 C 268.023438 118.082031 267.78125 117.339844 267.78125 116.390625 C 267.78125 115.414062 268.035156 114.660156 268.542969 114.125 C 269.050781 113.578125 269.703125 113.304688 270.515625 113.304688 C 271.296875 113.304688 271.925781 113.570312 272.410156 114.105469 C 272.902344 114.625 273.152344 115.367188 273.152344 116.332031 C 273.152344 116.398438 273.152344 116.488281 273.152344 116.605469 L 268.796875 116.605469 C 268.835938 117.242188 269.015625 117.730469 269.34375 118.070312 C 269.664062 118.410156 270.074219 118.578125 270.574219 118.578125 C 270.933594 118.578125 271.242188 118.488281 271.492188 118.304688 C 271.75 118.109375 271.949219 117.804688 272.097656 117.386719 Z M 268.855469 115.785156 L 272.117188 115.785156 C 272.078125 115.289062 271.949219 114.917969 271.746094 114.671875 C 271.433594 114.292969 271.023438 114.105469 270.515625 114.105469 C 270.054688 114.105469 269.675781 114.261719 269.363281 114.574219 C 269.058594 114.875 268.894531 115.277344 268.855469 115.785156 Z M 268.855469 115.785156 "/>
<path style=" stroke:none;fill-rule:nonzero;fill:rgb(0%,0%,0%);fill-opacity:1;" d="M 274.351562 119.261719 L 274.351562 113.421875 L 275.25 113.421875 L 275.25 114.320312 C 275.46875 113.902344 275.679688 113.628906 275.875 113.5 C 276.070312 113.371094 276.285156 113.304688 276.519531 113.304688 C 276.839844 113.304688 277.183594 113.410156 277.535156 113.617188 L 277.183594 114.535156 C 276.949219 114.390625 276.703125 114.320312 276.460938 114.320312 C 276.25 114.320312 276.054688 114.386719 275.875 114.515625 C 275.703125 114.644531 275.582031 114.828125 275.503906 115.0625 C 275.394531 115.414062 275.347656 115.796875 275.347656 116.214844 L 275.347656 119.261719 Z M 274.351562 119.261719 "/>
<path style=" stroke:none;fill-rule:nonzero;fill:rgb(0%,0%,0%);fill-opacity:1;" d="M 281.925781 118.539062 C 281.558594 118.851562 281.207031 119.074219 280.871094 119.203125 C 280.527344 119.328125 280.167969 119.398438 279.777344 119.398438 C 279.136719 119.398438 278.644531 119.242188 278.292969 118.929688 C 277.949219 118.617188 277.785156 118.214844 277.785156 117.71875 C 277.785156 117.433594 277.847656 117.171875 277.980469 116.9375 C 278.105469 116.703125 278.277344 116.515625 278.488281 116.371094 C 278.691406 116.226562 278.925781 116.117188 279.191406 116.039062 C 279.386719 116 279.679688 115.953125 280.070312 115.902344 C 280.875 115.8125 281.464844 115.695312 281.847656 115.550781 C 281.847656 115.421875 281.847656 115.335938 281.847656 115.296875 C 281.847656 114.894531 281.753906 114.613281 281.574219 114.457031 C 281.308594 114.222656 280.933594 114.105469 280.441406 114.105469 C 279.972656 114.105469 279.625 114.191406 279.40625 114.359375 C 279.179688 114.515625 279.019531 114.800781 278.917969 115.21875 L 277.960938 115.101562 C 278.039062 114.683594 278.175781 114.351562 278.371094 114.105469 C 278.574219 113.84375 278.867188 113.648438 279.25 113.519531 C 279.640625 113.375 280.078125 113.304688 280.578125 113.304688 C 281.085938 113.304688 281.484375 113.363281 281.789062 113.480469 C 282.101562 113.597656 282.324219 113.746094 282.472656 113.929688 C 282.628906 114.097656 282.730469 114.320312 282.785156 114.59375 C 282.824219 114.761719 282.84375 115.0625 282.84375 115.492188 L 282.84375 116.820312 C 282.84375 117.730469 282.863281 118.3125 282.902344 118.558594 C 282.941406 118.804688 283.023438 119.039062 283.15625 119.261719 L 282.121094 119.261719 C 282.011719 119.054688 281.949219 118.8125 281.925781 118.539062 Z M 281.847656 116.332031 C 281.480469 116.476562 280.9375 116.597656 280.226562 116.703125 C 279.820312 116.769531 279.53125 116.839844 279.367188 116.917969 C 279.195312 116.984375 279.0625 117.085938 278.976562 117.230469 C 278.882812 117.375 278.839844 117.53125 278.839844 117.699219 C 278.839844 117.960938 278.9375 118.179688 279.132812 118.363281 C 279.328125 118.53125 279.621094 118.617188 280.011719 118.617188 C 280.386719 118.617188 280.722656 118.53125 281.027344 118.363281 C 281.324219 118.195312 281.542969 117.964844 281.691406 117.679688 C 281.792969 117.457031 281.847656 117.132812 281.847656 116.703125 Z M 281.847656 116.332031 "/>
<path style=" stroke:none;fill-rule:nonzero;fill:rgb(0%,0%,0%);fill-opacity:1;" d="M 284.355469 119.261719 L 284.355469 111.214844 L 285.332031 111.214844 L 285.332031 119.261719 Z M 284.355469 119.261719 "/>
<path style=" stroke:none;fill-rule:nonzero;fill:rgb(0%,0%,0%);fill-opacity:1;" d="M 286.875 112.347656 L 286.875 111.214844 L 287.871094 111.214844 L 287.871094 112.347656 Z M 286.875 119.261719 L 286.875 113.421875 L 287.871094 113.421875 L 287.871094 119.261719 Z M 286.875 119.261719 "/>
<path style=" stroke:none;fill-rule:nonzero;fill:rgb(0%,0%,0%);fill-opacity:1;" d="M 288.84375 119.261719 L 288.84375 118.460938 L 292.554688 114.203125 C 292.136719 114.214844 291.765625 114.222656 291.441406 114.222656 L 289.078125 114.222656 L 289.078125 113.421875 L 293.84375 113.421875 L 293.84375 114.085938 L 290.679688 117.777344 L 290.074219 118.460938 C 290.515625 118.421875 290.933594 118.402344 291.324219 118.402344 L 294.019531 118.402344 L 294.019531 119.261719 Z M 288.84375 119.261719 "/>
<path style=" stroke:none;fill-rule:nonzero;fill:rgb(0%,0%,0%);fill-opacity:1;" d="M 298.804688 118.539062 C 298.441406 118.851562 298.089844 119.074219 297.75 119.203125 C 297.410156 119.328125 297.046875 119.398438 296.65625 119.398438 C 296.019531 119.398438 295.523438 119.242188 295.171875 118.929688 C 294.832031 118.617188 294.664062 118.214844 294.664062 117.71875 C 294.664062 117.433594 294.730469 117.171875 294.859375 116.9375 C 294.988281 116.703125 295.160156 116.515625 295.367188 116.371094 C 295.574219 116.226562 295.808594 116.117188 296.070312 116.039062 C 296.265625 116 296.558594 115.953125 296.949219 115.902344 C 297.757812 115.8125 298.347656 115.695312 298.726562 115.550781 C 298.726562 115.421875 298.726562 115.335938 298.726562 115.296875 C 298.726562 114.894531 298.636719 114.613281 298.453125 114.457031 C 298.191406 114.222656 297.816406 114.105469 297.320312 114.105469 C 296.851562 114.105469 296.507812 114.191406 296.285156 114.359375 C 296.0625 114.515625 295.902344 114.800781 295.796875 115.21875 L 294.839844 115.101562 C 294.917969 114.683594 295.054688 114.351562 295.25 114.105469 C 295.457031 113.84375 295.75 113.648438 296.128906 113.519531 C 296.519531 113.375 296.960938 113.304688 297.457031 113.304688 C 297.964844 113.304688 298.367188 113.363281 298.667969 113.480469 C 298.980469 113.597656 299.207031 113.746094 299.351562 113.929688 C 299.507812 114.097656 299.613281 114.320312 299.664062 114.59375 C 299.703125 114.761719 299.722656 115.0625 299.722656 115.492188 L 299.722656 116.820312 C 299.722656 117.730469 299.742188 118.3125 299.78125 118.558594 C 299.820312 118.804688 299.90625 119.039062 300.035156 119.261719 L 299 119.261719 C 298.894531 119.054688 298.832031 118.8125 298.804688 118.539062 Z M 298.726562 116.332031 C 298.363281 116.476562 297.820312 116.597656 297.105469 116.703125 C 296.703125 116.769531 296.414062 116.839844 296.246094 116.917969 C 296.078125 116.984375 295.945312 117.085938 295.855469 117.230469 C 295.765625 117.375 295.71875 117.53125 295.71875 117.699219 C 295.71875 117.960938 295.816406 118.179688 296.011719 118.363281 C 296.207031 118.53125 296.5 118.617188 296.890625 118.617188 C 297.269531 118.617188 297.605469 118.53125 297.90625 118.363281 C 298.207031 118.195312 298.425781 117.964844 298.570312 117.679688 C 298.675781 117.457031 298.726562 117.132812 298.726562 116.703125 Z M 298.726562 116.332031 "/>
<path style=" stroke:none;fill-rule:nonzero;fill:rgb(0%,0%,0%);fill-opacity:1;" d="M 303.421875 118.382812 L 303.558594 119.242188 C 303.273438 119.304688 303.023438 119.339844 302.816406 119.339844 C 302.453125 119.339844 302.171875 119.28125 301.976562 119.164062 C 301.78125 119.046875 301.636719 118.898438 301.546875 118.714844 C 301.46875 118.53125 301.429688 118.148438 301.429688 117.5625 L 301.429688 114.203125 L 300.707031 114.203125 L 300.707031 113.421875 L 301.429688 113.421875 L 301.429688 111.976562 L 302.425781 111.390625 L 302.425781 113.421875 L 303.421875 113.421875 L 303.421875 114.203125 L 302.425781 114.203125 L 302.425781 117.601562 C 302.425781 117.886719 302.4375 118.070312 302.464844 118.148438 C 302.503906 118.226562 302.5625 118.292969 302.640625 118.34375 C 302.71875 118.394531 302.828125 118.421875 302.972656 118.421875 C 303.089844 118.421875 303.238281 118.410156 303.421875 118.382812 Z M 303.421875 118.382812 "/>
<path style=" stroke:none;fill-rule:nonzero;fill:rgb(0%,0%,0%);fill-opacity:1;" d="M 304.378906 112.347656 L 304.378906 111.214844 L 305.375 111.214844 L 305.375 112.347656 Z M 304.378906 119.261719 L 304.378906 113.421875 L 305.375 113.421875 L 305.375 119.261719 Z M 304.378906 119.261719 "/>
<path style=" stroke:none;fill-rule:nonzero;fill:rgb(0%,0%,0%);fill-opacity:1;" d="M 306.507812 116.351562 C 306.507812 115.269531 306.808594 114.46875 307.40625 113.949219 C 307.914062 113.519531 308.527344 113.304688 309.242188 113.304688 C 310.050781 113.304688 310.707031 113.566406 311.214844 114.085938 C 311.722656 114.605469 311.976562 115.328125 311.976562 116.253906 C 311.976562 117.007812 311.859375 117.601562 311.625 118.03125 C 311.402344 118.460938 311.078125 118.800781 310.648438 119.046875 C 310.21875 119.28125 309.75 119.398438 309.242188 119.398438 C 308.421875 119.398438 307.757812 119.136719 307.25 118.617188 C 306.753906 118.082031 306.507812 117.328125 306.507812 116.351562 Z M 307.523438 116.351562 C 307.523438 117.09375 307.6875 117.652344 308.011719 118.03125 C 308.335938 118.394531 308.746094 118.578125 309.242188 118.578125 C 309.738281 118.578125 310.148438 118.394531 310.472656 118.03125 C 310.796875 117.652344 310.960938 117.082031 310.960938 116.3125 C 310.960938 115.597656 310.796875 115.050781 310.472656 114.671875 C 310.148438 114.292969 309.738281 114.105469 309.242188 114.105469 C 308.746094 114.105469 308.335938 114.292969 308.011719 114.671875 C 307.6875 115.035156 307.523438 115.597656 307.523438 116.351562 Z M 307.523438 116.351562 "/>
<path style=" stroke:none;fill-rule:nonzero;fill:rgb(0%,0%,0%);fill-opacity:1;" d="M 313.136719 119.261719 L 313.136719 113.421875 L 314.035156 113.421875 L 314.035156 114.261719 C 314.449219 113.625 315.070312 113.304688 315.890625 113.304688 C 316.242188 113.304688 316.558594 113.371094 316.847656 113.5 C 317.144531 113.617188 317.367188 113.78125 317.511719 113.988281 C 317.652344 114.183594 317.757812 114.425781 317.824219 114.710938 C 317.863281 114.894531 317.882812 115.210938 317.882812 115.667969 L 317.882812 119.261719 L 316.886719 119.261719 L 316.886719 115.707031 C 316.886719 115.304688 316.847656 115.003906 316.769531 114.808594 C 316.691406 114.613281 316.554688 114.457031 316.359375 114.339844 C 316.164062 114.210938 315.933594 114.144531 315.675781 114.144531 C 315.257812 114.144531 314.894531 114.28125 314.582031 114.554688 C 314.28125 114.816406 314.132812 115.324219 314.132812 116.078125 L 314.132812 119.261719 Z M 313.136719 119.261719 "/>
<path style=" stroke:none;fill-rule:nonzero;fill:rgb(0%,0%,0%);fill-opacity:1;" d="M 322.5 119.261719 L 322.5 111.214844 L 323.476562 111.214844 L 323.476562 119.261719 Z M 322.5 119.261719 "/>
<path style=" stroke:none;fill-rule:nonzero;fill:rgb(0%,0%,0%);fill-opacity:1;" d="M 324.648438 116.351562 C 324.648438 115.269531 324.945312 114.46875 325.546875 113.949219 C 326.054688 113.519531 326.664062 113.304688 327.382812 113.304688 C 328.1875 113.304688 328.847656 113.566406 329.355469 114.085938 C 329.863281 114.605469 330.117188 115.328125 330.117188 116.253906 C 330.117188 117.007812 330 117.601562 329.765625 118.03125 C 329.542969 118.460938 329.21875 118.800781 328.789062 119.046875 C 328.359375 119.28125 327.890625 119.398438 327.382812 119.398438 C 326.5625 119.398438 325.898438 119.136719 325.390625 118.617188 C 324.894531 118.082031 324.648438 117.328125 324.648438 116.351562 Z M 325.664062 116.351562 C 325.664062 117.09375 325.824219 117.652344 326.152344 118.03125 C 326.476562 118.394531 326.886719 118.578125 327.382812 118.578125 C 327.875 118.578125 328.285156 118.394531 328.613281 118.03125 C 328.9375 117.652344 329.101562 117.082031 329.101562 116.3125 C 329.101562 115.597656 328.9375 115.050781 328.613281 114.671875 C 328.285156 114.292969 327.875 114.105469 327.382812 114.105469 C 326.886719 114.105469 326.476562 114.292969 326.152344 114.671875 C 325.824219 115.035156 325.664062 115.597656 325.664062 116.351562 Z M 325.664062 116.351562 "/>
<path style=" stroke:none;fill-rule:nonzero;fill:rgb(0%,0%,0%);fill-opacity:1;" d="M 330.886719 117.523438 L 331.863281 117.367188 C 331.910156 117.757812 332.0625 118.058594 332.3125 118.265625 C 332.570312 118.472656 332.921875 118.578125 333.367188 118.578125 C 333.820312 118.578125 334.15625 118.488281 334.382812 118.304688 C 334.601562 118.121094 334.714844 117.90625 334.714844 117.660156 C 334.714844 117.425781 334.617188 117.25 334.421875 117.132812 C 334.273438 117.042969 333.9375 116.925781 333.40625 116.78125 C 332.671875 116.597656 332.164062 116.441406 331.882812 116.3125 C 331.609375 116.183594 331.398438 116 331.257812 115.765625 C 331.109375 115.53125 331.042969 115.269531 331.042969 114.984375 C 331.042969 114.722656 331.101562 114.484375 331.21875 114.261719 C 331.335938 114.039062 331.496094 113.851562 331.707031 113.695312 C 331.863281 113.589844 332.066406 113.5 332.332031 113.421875 C 332.605469 113.34375 332.886719 113.304688 333.191406 113.304688 C 333.644531 113.304688 334.039062 113.371094 334.382812 113.5 C 334.734375 113.628906 334.992188 113.804688 335.164062 114.027344 C 335.328125 114.25 335.445312 114.546875 335.515625 114.925781 L 334.539062 115.0625 C 334.5 114.761719 334.367188 114.527344 334.148438 114.359375 C 333.9375 114.191406 333.644531 114.105469 333.269531 114.105469 C 332.808594 114.105469 332.488281 114.183594 332.292969 114.339844 C 332.097656 114.484375 332 114.660156 332 114.867188 C 332 114.996094 332.039062 115.109375 332.117188 115.199219 C 332.195312 115.316406 332.320312 115.40625 332.507812 115.472656 C 332.59375 115.511719 332.882812 115.597656 333.367188 115.726562 C 334.070312 115.910156 334.558594 116.058594 334.832031 116.175781 C 335.113281 116.292969 335.339844 116.46875 335.496094 116.703125 C 335.652344 116.925781 335.730469 117.203125 335.730469 117.542969 C 335.730469 117.882812 335.632812 118.195312 335.4375 118.480469 C 335.242188 118.765625 334.957031 118.996094 334.597656 119.164062 C 334.246094 119.320312 333.835938 119.398438 333.367188 119.398438 C 332.609375 119.398438 332.027344 119.242188 331.628906 118.929688 C 331.238281 118.605469 330.988281 118.136719 330.886719 117.523438 Z M 330.886719 117.523438 "/>
<path style=" stroke:none;fill-rule:nonzero;fill:rgb(0%,0%,0%);fill-opacity:1;" d="M 336.511719 117.523438 L 337.488281 117.367188 C 337.535156 117.757812 337.6875 118.058594 337.9375 118.265625 C 338.195312 118.472656 338.546875 118.578125 338.992188 118.578125 C 339.445312 118.578125 339.78125 118.488281 340.007812 118.304688 C 340.226562 118.121094 340.339844 117.90625 340.339844 117.660156 C 340.339844 117.425781 340.242188 117.25 340.046875 117.132812 C 339.898438 117.042969 339.5625 116.925781 339.03125 116.78125 C 338.296875 116.597656 337.789062 116.441406 337.507812 116.3125 C 337.234375 116.183594 337.023438 116 336.882812 115.765625 C 336.734375 115.53125 336.667969 115.269531 336.667969 114.984375 C 336.667969 114.722656 336.726562 114.484375 336.84375 114.261719 C 336.960938 114.039062 337.121094 113.851562 337.332031 113.695312 C 337.488281 113.589844 337.691406 113.5 337.957031 113.421875 C 338.230469 113.34375 338.511719 113.304688 338.816406 113.304688 C 339.269531 113.304688 339.664062 113.371094 340.007812 113.5 C 340.359375 113.628906 340.617188 113.804688 340.789062 114.027344 C 340.953125 114.25 341.070312 114.546875 341.140625 114.925781 L 340.164062 115.0625 C 340.125 114.761719 339.992188 114.527344 339.773438 114.359375 C 339.5625 114.191406 339.269531 114.105469 338.894531 114.105469 C 338.433594 114.105469 338.113281 114.183594 337.917969 114.339844 C 337.722656 114.484375 337.625 114.660156 337.625 114.867188 C 337.625 114.996094 337.664062 115.109375 337.742188 115.199219 C 337.820312 115.316406 337.945312 115.40625 338.132812 115.472656 C 338.21875 115.511719 338.507812 115.597656 338.992188 115.726562 C 339.695312 115.910156 340.183594 116.058594 340.457031 116.175781 C 340.738281 116.292969 340.964844 116.46875 341.121094 116.703125 C 341.277344 116.925781 341.355469 117.203125 341.355469 117.542969 C 341.355469 117.882812 341.257812 118.195312 341.0625 118.480469 C 340.867188 118.765625 340.582031 118.996094 340.222656 119.164062 C 339.871094 119.320312 339.460938 119.398438 338.992188 119.398438 C 338.234375 119.398438 337.652344 119.242188 337.253906 118.929688 C 336.863281 118.605469 336.613281 118.136719 336.511719 117.523438 Z M 336.511719 117.523438 "/>
<path style=" stroke:none;fill-rule:nonzero;fill:rgb(0%,0%,0%);fill-opacity:1;" d="M 265.175781 173.566406 L 265.175781 166.457031 L 262.539062 166.457031 L 262.539062 165.519531 L 268.90625 165.519531 L 268.90625 166.457031 L 266.25 166.457031 L 266.25 173.566406 Z M 265.175781 173.566406 "/>
<path style=" stroke:none;fill-rule:nonzero;fill:rgb(0%,0%,0%);fill-opacity:1;" d="M 269.441406 173.566406 L 269.441406 167.726562 L 270.339844 167.726562 L 270.339844 168.625 C 270.558594 168.210938 270.769531 167.9375 270.964844 167.804688 C 271.160156 167.675781 271.375 167.609375 271.609375 167.609375 C 271.929688 167.609375 272.273438 167.714844 272.625 167.921875 L 272.273438 168.839844 C 272.039062 168.699219 271.792969 168.625 271.550781 168.625 C 271.339844 168.625 271.144531 168.691406 270.964844 168.820312 C 270.792969 168.953125 270.671875 169.132812 270.59375 169.367188 C 270.484375 169.71875 270.4375 170.105469 270.4375 170.519531 L 270.4375 173.566406 Z M 269.441406 173.566406 "/>
<path style=" stroke:none;fill-rule:nonzero;fill:rgb(0%,0%,0%);fill-opacity:1;" d="M 277.015625 172.84375 C 276.648438 173.15625 276.296875 173.378906 275.960938 173.507812 C 275.617188 173.632812 275.257812 173.703125 274.867188 173.703125 C 274.226562 173.703125 273.734375 173.546875 273.382812 173.234375 C 273.039062 172.921875 272.875 172.519531 272.875 172.023438 C 272.875 171.738281 272.9375 171.476562 273.070312 171.242188 C 273.195312 171.007812 273.367188 170.820312 273.578125 170.675781 C 273.78125 170.535156 274.015625 170.421875 274.28125 170.34375 C 274.476562 170.304688 274.769531 170.261719 275.160156 170.207031 C 275.964844 170.117188 276.554688 170 276.9375 169.855469 C 276.9375 169.726562 276.9375 169.640625 276.9375 169.601562 C 276.9375 169.199219 276.84375 168.917969 276.664062 168.761719 C 276.398438 168.527344 276.023438 168.410156 275.53125 168.410156 C 275.0625 168.410156 274.714844 168.496094 274.496094 168.664062 C 274.269531 168.820312 274.109375 169.109375 274.007812 169.523438 L 273.050781 169.40625 C 273.128906 168.992188 273.265625 168.660156 273.460938 168.410156 C 273.664062 168.152344 273.957031 167.957031 274.339844 167.824219 C 274.730469 167.683594 275.167969 167.609375 275.667969 167.609375 C 276.175781 167.609375 276.574219 167.667969 276.878906 167.785156 C 277.191406 167.902344 277.414062 168.054688 277.5625 168.234375 C 277.71875 168.40625 277.820312 168.625 277.875 168.898438 C 277.914062 169.070312 277.933594 169.367188 277.933594 169.796875 L 277.933594 171.125 C 277.933594 172.039062 277.953125 172.617188 277.992188 172.863281 C 278.03125 173.113281 278.113281 173.347656 278.246094 173.566406 L 277.210938 173.566406 C 277.101562 173.359375 277.039062 173.117188 277.015625 172.84375 Z M 276.9375 170.636719 C 276.570312 170.78125 276.027344 170.90625 275.316406 171.007812 C 274.910156 171.074219 274.621094 171.144531 274.457031 171.222656 C 274.285156 171.289062 274.152344 171.394531 274.066406 171.535156 C 273.972656 171.679688 273.929688 171.835938 273.929688 172.003906 C 273.929688 172.265625 274.027344 172.488281 274.222656 172.667969 C 274.417969 172.839844 274.710938 172.921875 275.101562 172.921875 C 275.476562 172.921875 275.8125 172.839844 276.117188 172.667969 C 276.414062 172.5 276.632812 172.273438 276.78125 171.984375 C 276.882812 171.765625 276.9375 171.4375 276.9375 171.007812 Z M 276.9375 170.636719 "/>
<path style=" stroke:none;fill-rule:nonzero;fill:rgb(0%,0%,0%);fill-opacity:1;" d="M 279.464844 166.652344 L 279.464844 165.519531 L 280.460938 165.519531 L 280.460938 166.652344 Z M 279.464844 173.566406 L 279.464844 167.726562 L 280.460938 167.726562 L 280.460938 173.566406 Z M 279.464844 173.566406 "/>
<path style=" stroke:none;fill-rule:nonzero;fill:rgb(0%,0%,0%);fill-opacity:1;" d="M 281.964844 173.566406 L 281.964844 167.726562 L 282.863281 167.726562 L 282.863281 168.566406 C 283.277344 167.929688 283.898438 167.609375 284.71875 167.609375 C 285.070312 167.609375 285.386719 167.675781 285.675781 167.804688 C 285.972656 167.921875 286.191406 168.085938 286.339844 168.292969 C 286.480469 168.488281 286.582031 168.730469 286.652344 169.015625 C 286.691406 169.199219 286.710938 169.519531 286.710938 169.972656 L 286.710938 173.566406 L 285.714844 173.566406 L 285.714844 170.011719 C 285.714844 169.609375 285.675781 169.308594 285.597656 169.113281 C 285.519531 168.917969 285.382812 168.761719 285.1875 168.644531 C 284.992188 168.515625 284.761719 168.449219 284.503906 168.449219 C 284.082031 168.449219 283.722656 168.585938 283.410156 168.859375 C 283.105469 169.121094 282.960938 169.628906 282.960938 170.382812 L 282.960938 173.566406 Z M 281.964844 173.566406 "/>
<path style=" stroke:none;fill-rule:nonzero;fill:rgb(0%,0%,0%);fill-opacity:1;" d="M 288.21875 166.652344 L 288.21875 165.519531 L 289.214844 165.519531 L 289.214844 166.652344 Z M 288.21875 173.566406 L 288.21875 167.726562 L 289.214844 167.726562 L 289.214844 173.566406 Z M 288.21875 173.566406 "/>
<path style=" stroke:none;fill-rule:nonzero;fill:rgb(0%,0%,0%);fill-opacity:1;" d="M 290.71875 173.566406 L 290.71875 167.726562 L 291.617188 167.726562 L 291.617188 168.566406 C 292.035156 167.929688 292.652344 167.609375 293.472656 167.609375 C 293.824219 167.609375 294.144531 167.675781 294.429688 167.804688 C 294.730469 167.921875 294.949219 168.085938 295.09375 168.292969 C 295.238281 168.488281 295.339844 168.730469 295.40625 169.015625 C 295.445312 169.199219 295.464844 169.519531 295.464844 169.972656 L 295.464844 173.566406 L 294.46875 173.566406 L 294.46875 170.011719 C 294.46875 169.609375 294.429688 169.308594 294.351562 169.113281 C 294.273438 168.917969 294.136719 168.761719 293.941406 168.644531 C 293.746094 168.515625 293.519531 168.449219 293.257812 168.449219 C 292.839844 168.449219 292.476562 168.585938 292.164062 168.859375 C 291.863281 169.121094 291.714844 169.628906 291.714844 170.382812 L 291.714844 173.566406 Z M 290.71875 173.566406 "/>
<path style=" stroke:none;fill-rule:nonzero;fill:rgb(0%,0%,0%);fill-opacity:1;" d="M 296.800781 174.054688 L 297.757812 174.191406 C 297.796875 174.488281 297.90625 174.703125 298.089844 174.835938 C 298.335938 175.015625 298.675781 175.109375 299.105469 175.109375 C 299.5625 175.109375 299.914062 175.015625 300.160156 174.835938 C 300.40625 174.648438 300.578125 174.394531 300.667969 174.074219 C 300.71875 173.863281 300.738281 173.445312 300.726562 172.804688 C 300.296875 173.3125 299.761719 173.566406 299.125 173.566406 C 298.316406 173.566406 297.691406 173.28125 297.25 172.707031 C 296.820312 172.121094 296.605469 171.425781 296.605469 170.617188 C 296.605469 170.058594 296.703125 169.542969 296.898438 169.074219 C 297.105469 168.605469 297.398438 168.25 297.777344 168 C 298.15625 167.742188 298.605469 167.609375 299.125 167.609375 C 299.816406 167.609375 300.382812 167.882812 300.824219 168.429688 L 300.824219 167.726562 L 301.742188 167.726562 L 301.742188 172.765625 C 301.742188 173.671875 301.644531 174.316406 301.449219 174.699219 C 301.265625 175.074219 300.972656 175.371094 300.570312 175.597656 C 300.179688 175.816406 299.691406 175.929688 299.105469 175.929688 C 298.402344 175.929688 297.835938 175.773438 297.40625 175.460938 C 296.988281 175.148438 296.789062 174.679688 296.800781 174.054688 Z M 297.621094 170.539062 C 297.621094 171.308594 297.769531 171.867188 298.070312 172.21875 C 298.371094 172.570312 298.746094 172.746094 299.203125 172.746094 C 299.660156 172.746094 300.042969 172.570312 300.355469 172.21875 C 300.667969 171.867188 300.824219 171.320312 300.824219 170.578125 C 300.824219 169.863281 300.660156 169.324219 300.335938 168.957031 C 300.023438 168.59375 299.644531 168.410156 299.203125 168.410156 C 298.761719 168.410156 298.382812 168.59375 298.070312 168.957031 C 297.769531 169.308594 297.621094 169.835938 297.621094 170.539062 Z M 297.621094 170.539062 "/>
<path style=" stroke:none;fill-rule:nonzero;fill:rgb(0%,0%,0%);fill-opacity:1;" d="M 306.339844 173.566406 L 306.339844 165.519531 L 307.316406 165.519531 L 307.316406 173.566406 Z M 306.339844 173.566406 "/>
<path style=" stroke:none;fill-rule:nonzero;fill:rgb(0%,0%,0%);fill-opacity:1;" d="M 308.488281 170.65625 C 308.488281 169.578125 308.785156 168.777344 309.386719 168.253906 C 309.894531 167.824219 310.503906 167.609375 311.222656 167.609375 C 312.027344 167.609375 312.6875 167.871094 313.195312 168.390625 C 313.703125 168.914062 313.957031 169.636719 313.957031 170.558594 C 313.957031 171.316406 313.839844 171.90625 313.605469 172.335938 C 313.382812 172.765625 313.058594 173.105469 312.628906 173.351562 C 312.199219 173.585938 311.730469 173.703125 311.222656 173.703125 C 310.402344 173.703125 309.738281 173.445312 309.230469 172.921875 C 308.734375 172.390625 308.488281 171.632812 308.488281 170.65625 Z M 309.503906 170.65625 C 309.503906 171.398438 309.664062 171.960938 309.992188 172.335938 C 310.316406 172.703125 310.726562 172.882812 311.222656 172.882812 C 311.714844 172.882812 312.125 172.703125 312.453125 172.335938 C 312.777344 171.960938 312.941406 171.386719 312.941406 170.617188 C 312.941406 169.902344 312.777344 169.355469 312.453125 168.976562 C 312.125 168.601562 311.714844 168.410156 311.222656 168.410156 C 310.726562 168.410156 310.316406 168.601562 309.992188 168.976562 C 309.664062 169.34375 309.503906 169.902344 309.503906 170.65625 Z M 309.503906 170.65625 "/>
<path style=" stroke:none;fill-rule:nonzero;fill:rgb(0%,0%,0%);fill-opacity:1;" d="M 314.726562 171.828125 L 315.703125 171.671875 C 315.75 172.0625 315.902344 172.363281 316.152344 172.570312 C 316.410156 172.78125 316.761719 172.882812 317.207031 172.882812 C 317.660156 172.882812 317.996094 172.792969 318.222656 172.609375 C 318.441406 172.429688 318.554688 172.214844 318.554688 171.964844 C 318.554688 171.730469 318.457031 171.554688 318.261719 171.4375 C 318.113281 171.347656 317.777344 171.230469 317.246094 171.085938 C 316.511719 170.90625 316.003906 170.75 315.722656 170.617188 C 315.449219 170.488281 315.238281 170.304688 315.097656 170.070312 C 314.949219 169.835938 314.882812 169.578125 314.882812 169.289062 C 314.882812 169.03125 314.941406 168.789062 315.058594 168.566406 C 315.175781 168.347656 315.335938 168.15625 315.546875 168 C 315.703125 167.898438 315.90625 167.804688 316.171875 167.726562 C 316.445312 167.648438 316.726562 167.609375 317.03125 167.609375 C 317.484375 167.609375 317.878906 167.675781 318.222656 167.804688 C 318.574219 167.9375 318.832031 168.113281 319.003906 168.332031 C 319.167969 168.554688 319.285156 168.855469 319.355469 169.230469 L 318.378906 169.367188 C 318.339844 169.070312 318.207031 168.835938 317.988281 168.664062 C 317.777344 168.496094 317.484375 168.410156 317.109375 168.410156 C 316.648438 168.410156 316.328125 168.488281 316.132812 168.644531 C 315.9375 168.789062 315.839844 168.964844 315.839844 169.171875 C 315.839844 169.304688 315.878906 169.414062 315.957031 169.503906 C 316.035156 169.621094 316.160156 169.714844 316.347656 169.777344 C 316.433594 169.816406 316.722656 169.902344 317.207031 170.03125 C 317.910156 170.214844 318.398438 170.363281 318.671875 170.480469 C 318.953125 170.597656 319.179688 170.773438 319.335938 171.007812 C 319.492188 171.230469 319.570312 171.511719 319.570312 171.847656 C 319.570312 172.1875 319.472656 172.5 319.277344 172.785156 C 319.082031 173.074219 318.796875 173.300781 318.4375 173.46875 C 318.085938 173.625 317.675781 173.703125 317.207031 173.703125 C 316.449219 173.703125 315.867188 173.546875 315.46875 173.234375 C 315.078125 172.910156 314.828125 172.441406 314.726562 171.828125 Z M 314.726562 171.828125 "/>
<path style=" stroke:none;fill-rule:nonzero;fill:rgb(0%,0%,0%);fill-opacity:1;" d="M 320.351562 171.828125 L 321.328125 171.671875 C 321.375 172.0625 321.527344 172.363281 321.777344 172.570312 C 322.035156 172.78125 322.386719 172.882812 322.832031 172.882812 C 323.285156 172.882812 323.621094 172.792969 323.847656 172.609375 C 324.066406 172.429688 324.179688 172.214844 324.179688 171.964844 C 324.179688 171.730469 324.082031 171.554688 323.886719 171.4375 C 323.738281 171.347656 323.402344 171.230469 322.871094 171.085938 C 322.136719 170.90625 321.628906 170.75 321.347656 170.617188 C 321.074219 170.488281 320.863281 170.304688 320.722656 170.070312 C 320.574219 169.835938 320.507812 169.578125 320.507812 169.289062 C 320.507812 169.03125 320.566406 168.789062 320.683594 168.566406 C 320.800781 168.347656 320.960938 168.15625 321.171875 168 C 321.328125 167.898438 321.53125 167.804688 321.796875 167.726562 C 322.070312 167.648438 322.351562 167.609375 322.65625 167.609375 C 323.109375 167.609375 323.503906 167.675781 323.847656 167.804688 C 324.199219 167.9375 324.457031 168.113281 324.628906 168.332031 C 324.792969 168.554688 324.910156 168.855469 324.980469 169.230469 L 324.003906 169.367188 C 323.964844 169.070312 323.832031 168.835938 323.613281 168.664062 C 323.402344 168.496094 323.109375 168.410156 322.734375 168.410156 C 322.273438 168.410156 321.953125 168.488281 321.757812 168.644531 C 321.5625 168.789062 321.464844 168.964844 321.464844 169.171875 C 321.464844 169.304688 321.503906 169.414062 321.582031 169.503906 C 321.660156 169.621094 321.785156 169.714844 321.972656 169.777344 C 322.058594 169.816406 322.347656 169.902344 322.832031 170.03125 C 323.535156 170.214844 324.023438 170.363281 324.296875 170.480469 C 324.578125 170.597656 324.804688 170.773438 324.960938 171.007812 C 325.117188 171.230469 325.195312 171.511719 325.195312 171.847656 C 325.195312 172.1875 325.097656 172.5 324.902344 172.785156 C 324.707031 173.074219 324.421875 173.300781 324.0625 173.46875 C 323.710938 173.625 323.300781 173.703125 322.832031 173.703125 C 322.074219 173.703125 321.492188 173.546875 321.09375 173.234375 C 320.703125 172.910156 320.453125 172.441406 320.351562 171.828125 Z M 320.351562 171.828125 "/>
<path style=" stroke:none;fill-rule:nonzero;fill:rgb(0%,0%,0%);fill-opacity:1;" d="M 73.011719 14.269531 L 74.085938 14.269531 L 74.085938 18.917969 C 74.085938 19.726562 73.988281 20.371094 73.792969 20.851562 C 73.609375 21.320312 73.277344 21.707031 72.796875 22.003906 C 72.328125 22.304688 71.703125 22.453125 70.921875 22.453125 C 70.164062 22.453125 69.546875 22.320312 69.066406 22.0625 C 68.597656 21.804688 68.257812 21.425781 68.050781 20.929688 C 67.839844 20.4375 67.738281 19.765625 67.738281 18.917969 L 67.738281 14.269531 L 68.8125 14.269531 L 68.8125 18.917969 C 68.8125 19.609375 68.875 20.125 69.007812 20.460938 C 69.136719 20.789062 69.359375 21.042969 69.671875 21.222656 C 69.984375 21.40625 70.375 21.496094 70.84375 21.496094 C 71.625 21.496094 72.175781 21.320312 72.503906 20.96875 C 72.839844 20.605469 73.011719 19.921875 73.011719 18.917969 Z M 73.011719 14.269531 "/>
<path style=" stroke:none;fill-rule:nonzero;fill:rgb(0%,0%,0%);fill-opacity:1;" d="M 75.726562 22.316406 L 75.726562 16.476562 L 76.625 16.476562 L 76.625 17.316406 C 77.039062 16.679688 77.660156 16.359375 78.480469 16.359375 C 78.832031 16.359375 79.148438 16.425781 79.4375 16.554688 C 79.734375 16.671875 79.957031 16.835938 80.101562 17.042969 C 80.242188 17.238281 80.347656 17.480469 80.414062 17.765625 C 80.453125 17.949219 80.472656 18.269531 80.472656 18.722656 L 80.472656 22.316406 L 79.476562 22.316406 L 79.476562 18.761719 C 79.476562 18.359375 79.4375 18.058594 79.359375 17.863281 C 79.28125 17.667969 79.144531 17.511719 78.949219 17.394531 C 78.753906 17.265625 78.523438 17.199219 78.265625 17.199219 C 77.847656 17.199219 77.484375 17.335938 77.171875 17.609375 C 76.871094 17.871094 76.722656 18.378906 76.722656 19.132812 L 76.722656 22.316406 Z M 75.726562 22.316406 "/>
<path style=" stroke:none;fill-rule:nonzero;fill:rgb(0%,0%,0%);fill-opacity:1;" d="M 85.773438 22.316406 L 85.773438 21.574219 C 85.390625 22.160156 84.84375 22.453125 84.132812 22.453125 C 83.671875 22.453125 83.253906 22.320312 82.863281 22.0625 C 82.472656 21.804688 82.164062 21.445312 81.945312 20.988281 C 81.734375 20.535156 81.632812 20.007812 81.632812 19.40625 C 81.632812 18.820312 81.730469 18.292969 81.925781 17.824219 C 82.121094 17.34375 82.402344 16.980469 82.785156 16.730469 C 83.175781 16.484375 83.609375 16.359375 84.09375 16.359375 C 84.445312 16.359375 84.757812 16.433594 85.03125 16.574219 C 85.304688 16.71875 85.523438 16.914062 85.695312 17.160156 L 85.695312 14.269531 L 86.691406 14.269531 L 86.691406 22.316406 Z M 82.648438 19.40625 C 82.648438 20.148438 82.804688 20.710938 83.117188 21.085938 C 83.429688 21.453125 83.800781 21.632812 84.230469 21.632812 C 84.660156 21.632812 85.019531 21.457031 85.324219 21.105469 C 85.636719 20.753906 85.792969 20.214844 85.792969 19.484375 C 85.792969 18.691406 85.636719 18.105469 85.324219 17.726562 C 85.011719 17.351562 84.628906 17.160156 84.191406 17.160156 C 83.746094 17.160156 83.375 17.34375 83.078125 17.707031 C 82.789062 18.074219 82.648438 18.640625 82.648438 19.40625 Z M 82.648438 19.40625 "/>
<path style=" stroke:none;fill-rule:nonzero;fill:rgb(0%,0%,0%);fill-opacity:1;" d="M 92.226562 20.441406 L 93.261719 20.558594 C 93.089844 21.160156 92.78125 21.628906 92.34375 21.964844 C 91.914062 22.292969 91.355469 22.453125 90.683594 22.453125 C 89.832031 22.453125 89.160156 22.195312 88.652344 21.671875 C 88.152344 21.140625 87.910156 20.398438 87.910156 19.445312 C 87.910156 18.46875 88.164062 17.714844 88.671875 17.179688 C 89.179688 16.632812 89.832031 16.359375 90.644531 16.359375 C 91.425781 16.359375 92.054688 16.628906 92.539062 17.160156 C 93.03125 17.683594 93.28125 18.425781 93.28125 19.386719 C 93.28125 19.453125 93.28125 19.542969 93.28125 19.660156 L 88.925781 19.660156 C 88.964844 20.300781 89.144531 20.789062 89.472656 21.125 C 89.792969 21.464844 90.203125 21.632812 90.703125 21.632812 C 91.0625 21.632812 91.371094 21.542969 91.621094 21.359375 C 91.878906 21.164062 92.078125 20.859375 92.226562 20.441406 Z M 88.984375 18.839844 L 92.246094 18.839844 C 92.207031 18.347656 92.078125 17.976562 91.875 17.726562 C 91.5625 17.351562 91.152344 17.160156 90.644531 17.160156 C 90.183594 17.160156 89.804688 17.316406 89.492188 17.628906 C 89.1875 17.929688 89.023438 18.332031 88.984375 18.839844 Z M 88.984375 18.839844 "/>
<path style=" stroke:none;fill-rule:nonzero;fill:rgb(0%,0%,0%);fill-opacity:1;" d="M 94.480469 22.316406 L 94.480469 16.476562 L 95.378906 16.476562 L 95.378906 17.375 C 95.597656 16.960938 95.808594 16.6875 96.003906 16.554688 C 96.199219 16.425781 96.414062 16.359375 96.648438 16.359375 C 96.96875 16.359375 97.3125 16.464844 97.664062 16.671875 L 97.3125 17.589844 C 97.078125 17.449219 96.832031 17.375 96.589844 17.375 C 96.378906 17.375 96.183594 17.441406 96.003906 17.570312 C 95.832031 17.703125 95.710938 17.882812 95.632812 18.117188 C 95.523438 18.46875 95.476562 18.855469 95.476562 19.269531 L 95.476562 22.316406 Z M 94.480469 22.316406 "/>
<path style=" stroke:none;fill-rule:nonzero;fill:rgb(0%,0%,0%);fill-opacity:1;" d="M 98.480469 22.316406 L 98.480469 17.257812 L 97.601562 17.257812 L 97.601562 16.476562 L 98.480469 16.476562 L 98.480469 15.871094 C 98.480469 15.46875 98.507812 15.175781 98.578125 14.992188 C 98.679688 14.734375 98.851562 14.523438 99.085938 14.367188 C 99.328125 14.210938 99.671875 14.132812 100.101562 14.132812 C 100.375 14.132812 100.675781 14.167969 101.019531 14.230469 L 100.863281 15.089844 C 100.667969 15.050781 100.476562 15.03125 100.296875 15.03125 C 99.992188 15.03125 99.777344 15.097656 99.652344 15.226562 C 99.519531 15.359375 99.457031 15.597656 99.457031 15.949219 L 99.457031 16.476562 L 100.609375 16.476562 L 100.609375 17.257812 L 99.457031 17.257812 L 99.457031 22.316406 Z M 98.480469 22.316406 "/>
<path style=" stroke:none;fill-rule:nonzero;fill:rgb(0%,0%,0%);fill-opacity:1;" d="M 101.371094 15.402344 L 101.371094 14.269531 L 102.367188 14.269531 L 102.367188 15.402344 Z M 101.371094 22.316406 L 101.371094 16.476562 L 102.367188 16.476562 L 102.367188 22.316406 Z M 101.371094 22.316406 "/>
<path style=" stroke:none;fill-rule:nonzero;fill:rgb(0%,0%,0%);fill-opacity:1;" d="M 106.039062 21.4375 L 106.175781 22.296875 C 105.886719 22.359375 105.636719 22.394531 105.433594 22.394531 C 105.066406 22.394531 104.789062 22.335938 104.59375 22.21875 C 104.398438 22.101562 104.25 21.953125 104.164062 21.769531 C 104.085938 21.589844 104.046875 21.203125 104.046875 20.617188 L 104.046875 17.257812 L 103.324219 17.257812 L 103.324219 16.476562 L 104.046875 16.476562 L 104.046875 15.03125 L 105.042969 14.445312 L 105.042969 16.476562 L 106.039062 16.476562 L 106.039062 17.257812 L 105.042969 17.257812 L 105.042969 20.65625 C 105.042969 20.945312 105.050781 21.125 105.082031 21.203125 C 105.121094 21.28125 105.179688 21.347656 105.257812 21.398438 C 105.335938 21.453125 105.441406 21.476562 105.589844 21.476562 C 105.707031 21.476562 105.851562 21.464844 106.039062 21.4375 Z M 106.039062 21.4375 "/>
<path style=" stroke:none;fill-rule:nonzero;fill:rgb(0%,0%,0%);fill-opacity:1;" d="M 109.164062 21.4375 L 109.300781 22.296875 C 109.011719 22.359375 108.761719 22.394531 108.558594 22.394531 C 108.191406 22.394531 107.914062 22.335938 107.71875 22.21875 C 107.523438 22.101562 107.375 21.953125 107.289062 21.769531 C 107.210938 21.589844 107.171875 21.203125 107.171875 20.617188 L 107.171875 17.257812 L 106.449219 17.257812 L 106.449219 16.476562 L 107.171875 16.476562 L 107.171875 15.03125 L 108.167969 14.445312 L 108.167969 16.476562 L 109.164062 16.476562 L 109.164062 17.257812 L 108.167969 17.257812 L 108.167969 20.65625 C 108.167969 20.945312 108.175781 21.125 108.207031 21.203125 C 108.246094 21.28125 108.304688 21.347656 108.382812 21.398438 C 108.460938 21.453125 108.566406 21.476562 108.714844 21.476562 C 108.832031 21.476562 108.976562 21.464844 109.164062 21.4375 Z M 109.164062 21.4375 "/>
<path style=" stroke:none;fill-rule:nonzero;fill:rgb(0%,0%,0%);fill-opacity:1;" d="M 110.121094 15.402344 L 110.121094 14.269531 L 111.117188 14.269531 L 111.117188 15.402344 Z M 110.121094 22.316406 L 110.121094 16.476562 L 111.117188 16.476562 L 111.117188 22.316406 Z M 110.121094 22.316406 "/>
<path style=" stroke:none;fill-rule:nonzero;fill:rgb(0%,0%,0%);fill-opacity:1;" d="M 112.621094 22.316406 L 112.621094 16.476562 L 113.519531 16.476562 L 113.519531 17.316406 C 113.933594 16.679688 114.554688 16.359375 115.375 16.359375 C 115.726562 16.359375 116.042969 16.425781 116.332031 16.554688 C 116.628906 16.671875 116.847656 16.835938 116.996094 17.042969 C 117.136719 17.238281 117.238281 17.480469 117.308594 17.765625 C 117.347656 17.949219 117.367188 18.269531 117.367188 18.722656 L 117.367188 22.316406 L 116.371094 22.316406 L 116.371094 18.761719 C 116.371094 18.359375 116.332031 18.058594 116.253906 17.863281 C 116.175781 17.667969 116.039062 17.511719 115.84375 17.394531 C 115.648438 17.265625 115.417969 17.199219 115.160156 17.199219 C 114.738281 17.199219 114.378906 17.335938 114.066406 17.609375 C 113.761719 17.871094 113.617188 18.378906 113.617188 19.132812 L 113.617188 22.316406 Z M 112.621094 22.316406 "/>
<path style=" stroke:none;fill-rule:nonzero;fill:rgb(0%,0%,0%);fill-opacity:1;" d="M 118.703125 22.804688 L 119.660156 22.941406 C 119.699219 23.238281 119.804688 23.453125 119.992188 23.585938 C 120.234375 23.765625 120.578125 23.859375 121.007812 23.859375 C 121.460938 23.859375 121.8125 23.765625 122.0625 23.585938 C 122.304688 23.398438 122.476562 23.144531 122.570312 22.824219 C 122.617188 22.613281 122.636719 22.195312 122.628906 21.554688 C 122.199219 22.0625 121.660156 22.316406 121.027344 22.316406 C 120.214844 22.316406 119.589844 22.03125 119.152344 21.457031 C 118.722656 20.871094 118.507812 20.175781 118.507812 19.367188 C 118.507812 18.808594 118.605469 18.292969 118.800781 17.824219 C 119.003906 17.355469 119.296875 17 119.679688 16.75 C 120.054688 16.492188 120.503906 16.359375 121.027344 16.359375 C 121.714844 16.359375 122.28125 16.632812 122.726562 17.179688 L 122.726562 16.476562 L 123.644531 16.476562 L 123.644531 21.515625 C 123.644531 22.421875 123.546875 23.066406 123.351562 23.449219 C 123.164062 23.824219 122.871094 24.121094 122.472656 24.347656 C 122.082031 24.566406 121.59375 24.679688 121.007812 24.679688 C 120.304688 24.679688 119.738281 24.523438 119.308594 24.210938 C 118.886719 23.898438 118.6875 23.429688 118.703125 22.804688 Z M 119.523438 19.289062 C 119.523438 20.058594 119.667969 20.617188 119.972656 20.96875 C 120.269531 21.320312 120.644531 21.496094 121.105469 21.496094 C 121.558594 21.496094 121.945312 21.320312 122.257812 20.96875 C 122.570312 20.617188 122.726562 20.070312 122.726562 19.328125 C 122.726562 18.613281 122.558594 18.074219 122.238281 17.707031 C 121.925781 17.34375 121.542969 17.160156 121.105469 17.160156 C 120.660156 17.160156 120.285156 17.34375 119.972656 17.707031 C 119.667969 18.058594 119.523438 18.585938 119.523438 19.289062 Z M 119.523438 19.289062 "/>
<path style=" stroke:none;fill-rule:nonzero;fill:rgb(0%,0%,0%);fill-opacity:1;" d="M 212.414062 18.390625 C 212.414062 17.0625 212.769531 16.023438 213.488281 15.265625 C 214.199219 14.5 215.128906 14.113281 216.261719 14.113281 C 217.003906 14.113281 217.671875 14.296875 218.273438 14.660156 C 218.867188 15.011719 219.328125 15.507812 219.640625 16.144531 C 219.953125 16.785156 220.109375 17.5 220.109375 18.292969 C 220.109375 19.113281 219.941406 19.851562 219.621094 20.5 C 219.292969 21.140625 218.824219 21.628906 218.214844 21.964844 C 217.613281 22.292969 216.964844 22.453125 216.261719 22.453125 C 215.503906 22.453125 214.824219 22.273438 214.230469 21.90625 C 213.628906 21.542969 213.175781 21.042969 212.863281 20.402344 C 212.558594 19.765625 212.414062 19.09375 212.414062 18.390625 Z M 213.507812 18.410156 C 213.507812 19.386719 213.765625 20.15625 214.289062 20.714844 C 214.804688 21.261719 215.464844 21.535156 216.261719 21.535156 C 217.050781 21.535156 217.710938 21.257812 218.234375 20.695312 C 218.75 20.136719 219.015625 19.335938 219.015625 18.292969 C 219.015625 17.644531 218.902344 17.078125 218.683594 16.59375 C 218.457031 16.101562 218.136719 15.714844 217.707031 15.441406 C 217.277344 15.167969 216.796875 15.03125 216.28125 15.03125 C 215.523438 15.03125 214.875 15.292969 214.328125 15.8125 C 213.78125 16.335938 213.507812 17.199219 213.507812 18.410156 Z M 213.507812 18.410156 "/>
<path style=" stroke:none;fill-rule:nonzero;fill:rgb(0%,0%,0%);fill-opacity:1;" d="M 222.980469 22.316406 L 220.753906 16.476562 L 221.808594 16.476562 L 223.058594 19.972656 C 223.183594 20.351562 223.3125 20.742188 223.429688 21.144531 C 223.515625 20.847656 223.644531 20.480469 223.800781 20.050781 L 225.089844 16.476562 L 226.105469 16.476562 L 223.898438 22.316406 Z M 222.980469 22.316406 "/>
<path style=" stroke:none;fill-rule:nonzero;fill:rgb(0%,0%,0%);fill-opacity:1;" d="M 230.96875 20.441406 L 232.003906 20.558594 C 231.832031 21.160156 231.523438 21.628906 231.085938 21.964844 C 230.65625 22.292969 230.097656 22.453125 229.425781 22.453125 C 228.574219 22.453125 227.902344 22.195312 227.394531 21.671875 C 226.894531 21.140625 226.652344 20.398438 226.652344 19.445312 C 226.652344 18.46875 226.90625 17.714844 227.414062 17.179688 C 227.921875 16.632812 228.574219 16.359375 229.386719 16.359375 C 230.167969 16.359375 230.796875 16.628906 231.28125 17.160156 C 231.773438 17.683594 232.023438 18.425781 232.023438 19.386719 C 232.023438 19.453125 232.023438 19.542969 232.023438 19.660156 L 227.667969 19.660156 C 227.707031 20.300781 227.886719 20.789062 228.214844 21.125 C 228.535156 21.464844 228.945312 21.632812 229.445312 21.632812 C 229.804688 21.632812 230.113281 21.542969 230.363281 21.359375 C 230.621094 21.164062 230.820312 20.859375 230.96875 20.441406 Z M 227.726562 18.839844 L 230.988281 18.839844 C 230.949219 18.347656 230.820312 17.976562 230.617188 17.726562 C 230.304688 17.351562 229.894531 17.160156 229.386719 17.160156 C 228.925781 17.160156 228.546875 17.316406 228.234375 17.628906 C 227.929688 17.929688 227.765625 18.332031 227.726562 18.839844 Z M 227.726562 18.839844 "/>
<path style=" stroke:none;fill-rule:nonzero;fill:rgb(0%,0%,0%);fill-opacity:1;" d="M 233.222656 22.316406 L 233.222656 16.476562 L 234.121094 16.476562 L 234.121094 17.375 C 234.339844 16.960938 234.550781 16.6875 234.746094 16.554688 C 234.941406 16.425781 235.15625 16.359375 235.390625 16.359375 C 235.710938 16.359375 236.054688 16.464844 236.40625 16.671875 L 236.054688 17.589844 C 235.820312 17.449219 235.574219 17.375 235.332031 17.375 C 235.121094 17.375 234.925781 17.441406 234.746094 17.570312 C 234.574219 17.703125 234.453125 17.882812 234.375 18.117188 C 234.265625 18.46875 234.21875 18.855469 234.21875 19.269531 L 234.21875 22.316406 Z M 233.222656 22.316406 "/>
<path style=" stroke:none;fill-rule:nonzero;fill:rgb(0%,0%,0%);fill-opacity:1;" d="M 237.222656 22.316406 L 237.222656 17.257812 L 236.34375 17.257812 L 236.34375 16.476562 L 237.222656 16.476562 L 237.222656 15.871094 C 237.222656 15.46875 237.25 15.175781 237.320312 14.992188 C 237.421875 14.734375 237.59375 14.523438 237.828125 14.367188 C 238.070312 14.210938 238.414062 14.132812 238.84375 14.132812 C 239.117188 14.132812 239.417969 14.167969 239.761719 14.230469 L 239.605469 15.089844 C 239.410156 15.050781 239.21875 15.03125 239.039062 15.03125 C 238.734375 15.03125 238.519531 15.097656 238.394531 15.226562 C 238.261719 15.359375 238.199219 15.597656 238.199219 15.949219 L 238.199219 16.476562 L 239.351562 16.476562 L 239.351562 17.257812 L 238.199219 17.257812 L 238.199219 22.316406 Z M 237.222656 22.316406 "/>
<path style=" stroke:none;fill-rule:nonzero;fill:rgb(0%,0%,0%);fill-opacity:1;" d="M 240.113281 15.402344 L 240.113281 14.269531 L 241.109375 14.269531 L 241.109375 15.402344 Z M 240.113281 22.316406 L 240.113281 16.476562 L 241.109375 16.476562 L 241.109375 22.316406 Z M 240.113281 22.316406 "/>
<path style=" stroke:none;fill-rule:nonzero;fill:rgb(0%,0%,0%);fill-opacity:1;" d="M 244.78125 21.4375 L 244.917969 22.296875 C 244.628906 22.359375 244.378906 22.394531 244.175781 22.394531 C 243.808594 22.394531 243.53125 22.335938 243.335938 22.21875 C 243.140625 22.101562 242.992188 21.953125 242.90625 21.769531 C 242.828125 21.589844 242.789062 21.203125 242.789062 20.617188 L 242.789062 17.257812 L 242.066406 17.257812 L 242.066406 16.476562 L 242.789062 16.476562 L 242.789062 15.03125 L 243.785156 14.445312 L 243.785156 16.476562 L 244.78125 16.476562 L 244.78125 17.257812 L 243.785156 17.257812 L 243.785156 20.65625 C 243.785156 20.945312 243.792969 21.125 243.824219 21.203125 C 243.863281 21.28125 243.921875 21.347656 244 21.398438 C 244.078125 21.453125 244.183594 21.476562 244.332031 21.476562 C 244.449219 21.476562 244.59375 21.464844 244.78125 21.4375 Z M 244.78125 21.4375 "/>
<path style=" stroke:none;fill-rule:nonzero;fill:rgb(0%,0%,0%);fill-opacity:1;" d="M 247.90625 21.4375 L 248.042969 22.296875 C 247.753906 22.359375 247.503906 22.394531 247.300781 22.394531 C 246.933594 22.394531 246.65625 22.335938 246.460938 22.21875 C 246.265625 22.101562 246.117188 21.953125 246.03125 21.769531 C 245.953125 21.589844 245.914062 21.203125 245.914062 20.617188 L 245.914062 17.257812 L 245.191406 17.257812 L 245.191406 16.476562 L 245.914062 16.476562 L 245.914062 15.03125 L 246.910156 14.445312 L 246.910156 16.476562 L 247.90625 16.476562 L 247.90625 17.257812 L 246.910156 17.257812 L 246.910156 20.65625 C 246.910156 20.945312 246.917969 21.125 246.949219 21.203125 C 246.988281 21.28125 247.046875 21.347656 247.125 21.398438 C 247.203125 21.453125 247.308594 21.476562 247.457031 21.476562 C 247.574219 21.476562 247.71875 21.464844 247.90625 21.4375 Z M 247.90625 21.4375 "/>
<path style=" stroke:none;fill-rule:nonzero;fill:rgb(0%,0%,0%);fill-opacity:1;" d="M 248.863281 15.402344 L 248.863281 14.269531 L 249.859375 14.269531 L 249.859375 15.402344 Z M 248.863281 22.316406 L 248.863281 16.476562 L 249.859375 16.476562 L 249.859375 22.316406 Z M 248.863281 22.316406 "/>
<path style=" stroke:none;fill-rule:nonzero;fill:rgb(0%,0%,0%);fill-opacity:1;" d="M 251.363281 22.316406 L 251.363281 16.476562 L 252.261719 16.476562 L 252.261719 17.316406 C 252.675781 16.679688 253.296875 16.359375 254.117188 16.359375 C 254.46875 16.359375 254.785156 16.425781 255.074219 16.554688 C 255.371094 16.671875 255.589844 16.835938 255.738281 17.042969 C 255.878906 17.238281 255.980469 17.480469 256.050781 17.765625 C 256.089844 17.949219 256.109375 18.269531 256.109375 18.722656 L 256.109375 22.316406 L 255.113281 22.316406 L 255.113281 18.761719 C 255.113281 18.359375 255.074219 18.058594 254.996094 17.863281 C 254.917969 17.667969 254.78125 17.511719 254.585938 17.394531 C 254.390625 17.265625 254.160156 17.199219 253.902344 17.199219 C 253.480469 17.199219 253.121094 17.335938 252.808594 17.609375 C 252.503906 17.871094 252.359375 18.378906 252.359375 19.132812 L 252.359375 22.316406 Z M 251.363281 22.316406 "/>
<path style=" stroke:none;fill-rule:nonzero;fill:rgb(0%,0%,0%);fill-opacity:1;" d="M 257.445312 22.804688 L 258.402344 22.941406 C 258.441406 23.238281 258.546875 23.453125 258.734375 23.585938 C 258.976562 23.765625 259.320312 23.859375 259.75 23.859375 C 260.203125 23.859375 260.554688 23.765625 260.804688 23.585938 C 261.046875 23.398438 261.21875 23.144531 261.3125 22.824219 C 261.359375 22.613281 261.378906 22.195312 261.371094 21.554688 C 260.941406 22.0625 260.402344 22.316406 259.769531 22.316406 C 258.957031 22.316406 258.332031 22.03125 257.894531 21.457031 C 257.464844 20.871094 257.25 20.175781 257.25 19.367188 C 257.25 18.808594 257.347656 18.292969 257.542969 17.824219 C 257.746094 17.355469 258.039062 17 258.421875 16.75 C 258.796875 16.492188 259.246094 16.359375 259.769531 16.359375 C 260.457031 16.359375 261.023438 16.632812 261.46875 17.179688 L 261.46875 16.476562 L 262.386719 16.476562 L 262.386719 21.515625 C 262.386719 22.421875 262.289062 23.066406 262.09375 23.449219 C 261.90625 23.824219 261.613281 24.121094 261.214844 24.347656 C 260.824219 24.566406 260.335938 24.679688 259.75 24.679688 C 259.046875 24.679688 258.480469 24.523438 258.050781 24.210938 C 257.628906 23.898438 257.429688 23.429688 257.445312 22.804688 Z M 258.265625 19.289062 C 258.265625 20.058594 258.410156 20.617188 258.714844 20.96875 C 259.011719 21.320312 259.386719 21.496094 259.847656 21.496094 C 260.300781 21.496094 260.6875 21.320312 261 20.96875 C 261.3125 20.617188 261.46875 20.070312 261.46875 19.328125 C 261.46875 18.613281 261.300781 18.074219 260.980469 17.707031 C 260.667969 17.34375 260.285156 17.160156 259.847656 17.160156 C 259.402344 17.160156 259.027344 17.34375 258.714844 17.707031 C 258.410156 18.058594 258.265625 18.585938 258.265625 19.289062 Z M 258.265625 19.289062 "/>
<path style="fill:none;stroke-width:1;stroke-linecap:round;stroke-linejoin:round;stroke:rgb(0%,0%,0%);stroke-opacity:1;stroke-miterlimit:10;" d="M 98.75 13.5 L 72.15 13.5 " transform="matrix(1.25,0,0,1.25,-7.5,-13.75)"/>
<path style="fill-rule:nonzero;fill:rgb(0%,0%,0%);fill-opacity:1;stroke-width:1;stroke-linecap:butt;stroke-linejoin:miter;stroke:rgb(0%,0%,0%);stroke-opacity:1;stroke-miterlimit:10;" d="M 68.15 13.5 L 72.15 15 L 72.15 12 Z M 68.15 13.5 " transform="matrix(1.25,0,0,1.25,-7.5,-13.75)"/>
<path style="fill:none;stroke-width:1;stroke-linecap:round;stroke-linejoin:round;stroke:rgb(0%,0%,0%);stroke-opacity:1;stroke-miterlimit:10;" d="M 179.75 13.5 L 206.35 13.5 " transform="matrix(1.25,0,0,1.25,-7.5,-13.75)"/>
<path style="fill-rule:nonzero;fill:rgb(0%,0%,0%);fill-opacity:1;stroke-width:1;stroke-linecap:butt;stroke-linejoin:miter;stroke:rgb(0%,0%,0%);stroke-opacity:1;stroke-miterlimit:10;" d="M 210.35 13.5 L 206.35 12 L 206.35 15 Z M 210.35 13.5 " transform="matrix(1.25,0,0,1.25,-7.5,-13.75)"/>
<path style="fill:none;stroke-width:1;stroke-linecap:round;stroke-linejoin:round;stroke:rgb(0%,0%,0%);stroke-opacity:1;stroke-dasharray:1,5;stroke-miterlimit:10;" d="M 140 174.609375 L 140 38.5 " transform="matrix(1.25,0,0,1.25,-7.5,-13.75)"/>
<path style=" stroke:none;fill-rule:nonzero;fill:rgb(0%,0%,0%);fill-opacity:1;" d="M 145.855469 18.390625 C 145.855469 17.0625 146.210938 16.023438 146.929688 15.265625 C 147.644531 14.5 148.570312 14.113281 149.703125 14.113281 C 150.445312 14.113281 151.113281 14.296875 151.714844 14.660156 C 152.3125 15.011719 152.769531 15.507812 153.082031 16.144531 C 153.394531 16.785156 153.550781 17.5 153.550781 18.292969 C 153.550781 19.113281 153.386719 19.851562 153.0625 20.5 C 152.734375 21.140625 152.265625 21.628906 151.65625 21.964844 C 151.054688 22.292969 150.40625 22.453125 149.703125 22.453125 C 148.945312 22.453125 148.269531 22.273438 147.671875 21.90625 C 147.070312 21.542969 146.617188 21.042969 146.304688 20.402344 C 146.003906 19.765625 145.855469 19.09375 145.855469 18.390625 Z M 146.949219 18.410156 C 146.949219 19.386719 147.207031 20.15625 147.730469 20.714844 C 148.25 21.261719 148.90625 21.535156 149.703125 21.535156 C 150.496094 21.535156 151.152344 21.257812 151.675781 20.695312 C 152.195312 20.136719 152.457031 19.335938 152.457031 18.292969 C 152.457031 17.644531 152.34375 17.078125 152.125 16.59375 C 151.902344 16.101562 151.578125 15.714844 151.148438 15.441406 C 150.71875 15.167969 150.242188 15.03125 149.722656 15.03125 C 148.964844 15.03125 148.316406 15.292969 147.769531 15.8125 C 147.222656 16.335938 146.949219 17.199219 146.949219 18.410156 Z M 146.949219 18.410156 "/>
<path style=" stroke:none;fill-rule:nonzero;fill:rgb(0%,0%,0%);fill-opacity:1;" d="M 154.800781 24.542969 L 154.800781 16.476562 L 155.699219 16.476562 L 155.699219 17.238281 C 155.90625 16.941406 156.140625 16.71875 156.402344 16.574219 C 156.675781 16.433594 157.007812 16.359375 157.398438 16.359375 C 157.890625 16.359375 158.328125 16.492188 158.707031 16.75 C 159.082031 17 159.371094 17.355469 159.566406 17.824219 C 159.761719 18.292969 159.859375 18.800781 159.859375 19.347656 C 159.859375 19.949219 159.746094 20.488281 159.527344 20.96875 C 159.316406 21.453125 159.011719 21.824219 158.609375 22.082031 C 158.203125 22.324219 157.773438 22.453125 157.320312 22.453125 C 156.992188 22.453125 156.699219 22.378906 156.441406 22.238281 C 156.179688 22.097656 155.964844 21.921875 155.796875 21.710938 L 155.796875 24.542969 Z M 155.699219 19.425781 C 155.699219 20.183594 155.847656 20.742188 156.148438 21.105469 C 156.460938 21.457031 156.832031 21.632812 157.261719 21.632812 C 157.691406 21.632812 158.0625 21.453125 158.375 21.085938 C 158.699219 20.710938 158.863281 20.128906 158.863281 19.347656 C 158.863281 18.605469 158.707031 18.054688 158.394531 17.6875 C 158.09375 17.3125 157.730469 17.121094 157.300781 17.121094 C 156.882812 17.121094 156.511719 17.324219 156.1875 17.726562 C 155.859375 18.117188 155.699219 18.683594 155.699219 19.425781 Z M 155.699219 19.425781 "/>
<path style=" stroke:none;fill-rule:nonzero;fill:rgb(0%,0%,0%);fill-opacity:1;" d="M 163.226562 21.4375 L 163.363281 22.296875 C 163.074219 22.359375 162.828125 22.394531 162.621094 22.394531 C 162.253906 22.394531 161.976562 22.335938 161.78125 22.21875 C 161.585938 22.101562 161.441406 21.953125 161.351562 21.769531 C 161.273438 21.589844 161.234375 21.203125 161.234375 20.617188 L 161.234375 17.257812 L 160.511719 17.257812 L 160.511719 16.476562 L 161.234375 16.476562 L 161.234375 15.03125 L 162.230469 14.445312 L 162.230469 16.476562 L 163.226562 16.476562 L 163.226562 17.257812 L 162.230469 17.257812 L 162.230469 20.65625 C 162.230469 20.945312 162.242188 21.125 162.269531 21.203125 C 162.308594 21.28125 162.367188 21.347656 162.445312 21.398438 C 162.523438 21.453125 162.632812 21.476562 162.777344 21.476562 C 162.894531 21.476562 163.042969 21.464844 163.226562 21.4375 Z M 163.226562 21.4375 "/>
<path style=" stroke:none;fill-rule:nonzero;fill:rgb(0%,0%,0%);fill-opacity:1;" d="M 164.183594 15.402344 L 164.183594 14.269531 L 165.179688 14.269531 L 165.179688 15.402344 Z M 164.183594 22.316406 L 164.183594 16.476562 L 165.179688 16.476562 L 165.179688 22.316406 Z M 164.183594 22.316406 "/>
<path style=" stroke:none;fill-rule:nonzero;fill:rgb(0%,0%,0%);fill-opacity:1;" d="M 166.683594 22.316406 L 166.683594 16.476562 L 167.5625 16.476562 L 167.5625 17.296875 C 167.742188 17.011719 167.984375 16.785156 168.285156 16.613281 C 168.597656 16.445312 168.949219 16.359375 169.339844 16.359375 C 169.769531 16.359375 170.121094 16.453125 170.394531 16.632812 C 170.667969 16.804688 170.863281 17.050781 170.980469 17.375 C 171.449219 16.699219 172.046875 16.359375 172.777344 16.359375 C 173.363281 16.359375 173.8125 16.523438 174.125 16.847656 C 174.4375 17.160156 174.59375 17.648438 174.59375 18.3125 L 174.59375 22.316406 L 173.597656 22.316406 L 173.597656 18.644531 C 173.597656 18.242188 173.5625 17.957031 173.5 17.785156 C 173.445312 17.617188 173.335938 17.480469 173.167969 17.375 C 172.996094 17.257812 172.796875 17.199219 172.5625 17.199219 C 172.15625 17.199219 171.820312 17.335938 171.546875 17.609375 C 171.273438 17.882812 171.136719 18.320312 171.136719 18.917969 L 171.136719 22.316406 L 170.140625 22.316406 L 170.140625 18.527344 C 170.140625 18.085938 170.0625 17.753906 169.90625 17.53125 C 169.75 17.3125 169.488281 17.199219 169.125 17.199219 C 168.835938 17.199219 168.578125 17.277344 168.34375 17.433594 C 168.109375 17.578125 167.9375 17.792969 167.835938 18.078125 C 167.730469 18.351562 167.679688 18.757812 167.679688 19.289062 L 167.679688 22.316406 Z M 166.683594 22.316406 "/>
<path style=" stroke:none;fill-rule:nonzero;fill:rgb(0%,0%,0%);fill-opacity:1;" d="M 179.882812 22.316406 L 179.882812 21.457031 C 179.425781 22.121094 178.808594 22.453125 178.027344 22.453125 C 177.6875 22.453125 177.367188 22.382812 177.070312 22.257812 C 176.769531 22.117188 176.542969 21.945312 176.386719 21.75 C 176.242188 21.554688 176.144531 21.316406 176.09375 21.027344 C 176.054688 20.832031 176.035156 20.519531 176.035156 20.089844 L 176.035156 16.476562 L 177.011719 16.476562 L 177.011719 19.71875 C 177.011719 20.242188 177.035156 20.585938 177.089844 20.753906 C 177.140625 21.015625 177.265625 21.222656 177.460938 21.378906 C 177.667969 21.523438 177.921875 21.59375 178.222656 21.59375 C 178.519531 21.59375 178.800781 21.523438 179.0625 21.378906 C 179.320312 21.222656 179.503906 21.015625 179.609375 20.753906 C 179.710938 20.496094 179.765625 20.109375 179.765625 19.601562 L 179.765625 16.476562 L 180.761719 16.476562 L 180.761719 22.316406 Z M 179.882812 22.316406 "/>
<path style=" stroke:none;fill-rule:nonzero;fill:rgb(0%,0%,0%);fill-opacity:1;" d="M 182.3125 22.316406 L 182.3125 16.476562 L 183.191406 16.476562 L 183.191406 17.296875 C 183.371094 17.011719 183.609375 16.785156 183.914062 16.613281 C 184.226562 16.445312 184.578125 16.359375 184.96875 16.359375 C 185.398438 16.359375 185.75 16.453125 186.023438 16.632812 C 186.296875 16.804688 186.492188 17.050781 186.609375 17.375 C 187.078125 16.699219 187.671875 16.359375 188.40625 16.359375 C 188.992188 16.359375 189.441406 16.523438 189.753906 16.847656 C 190.066406 17.160156 190.222656 17.648438 190.222656 18.3125 L 190.222656 22.316406 L 189.226562 22.316406 L 189.226562 18.644531 C 189.226562 18.242188 189.191406 17.957031 189.128906 17.785156 C 189.074219 17.617188 188.960938 17.480469 188.796875 17.375 C 188.625 17.257812 188.425781 17.199219 188.191406 17.199219 C 187.785156 17.199219 187.449219 17.335938 187.175781 17.609375 C 186.902344 17.882812 186.765625 18.320312 186.765625 18.917969 L 186.765625 22.316406 L 185.769531 22.316406 L 185.769531 18.527344 C 185.769531 18.085938 185.691406 17.753906 185.535156 17.53125 C 185.378906 17.3125 185.113281 17.199219 184.753906 17.199219 C 184.464844 17.199219 184.207031 17.277344 183.972656 17.433594 C 183.738281 17.578125 183.566406 17.792969 183.464844 18.078125 C 183.355469 18.351562 183.308594 18.757812 183.308594 19.289062 L 183.308594 22.316406 Z M 182.3125 22.316406 "/>
</g>
</svg>
