<svg version="1.1" viewBox="0.0 0.0 960.0 540.0" fill="none" stroke="none" stroke-linecap="square" stroke-miterlimit="10" xmlns:xlink="http://www.w3.org/1999/xlink" xmlns="http://www.w3.org/2000/svg"><clipPath id="p.0"><path d="m0 0l960.0 0l0 540.0l-960.0 0l0 -540.0z" clip-rule="nonzero"/></clipPath><g clip-path="url(#p.0)"><path fill="#ffffff" d="m0 0l960.0 0l0 540.0l-960.0 0z" fill-rule="evenodd"/><path fill="#000000" fill-opacity="0.0" d="m735.7202 333.5315l59.02362 0" fill-rule="evenodd"/><path stroke="#b3a77d" stroke-width="8.0" stroke-linejoin="round" stroke-linecap="butt" d="m735.7202 333.5315l59.02362 0" fill-rule="evenodd"/><path fill="#000000" fill-opacity="0.0" d="m165.358 331.57498l59.02362 0" fill-rule="evenodd"/><path stroke="#b3a77d" stroke-width="8.0" stroke-linejoin="round" stroke-linecap="butt" d="m165.358 331.57498l59.02362 0" fill-rule="evenodd"/><path fill="#000000" fill-opacity="0.0" d="m854.6784 107.29921l-749.2565 0" fill-rule="evenodd"/><path stroke="#4db6ac" stroke-width="8.0" stroke-linejoin="round" stroke-linecap="butt" d="m854.6784 107.29921l-749.2565 0" fill-rule="evenodd"/><path fill="#000000" fill-opacity="0.0" d="m854.6784 123.29921l-749.2565 0" fill-rule="evenodd"/><path stroke="#4db6ac" stroke-width="1.0" stroke-linejoin="round" stroke-linecap="butt" d="m854.6784 123.29921l-749.2565 0" fill-rule="evenodd"/><path fill="#000000" fill-opacity="0.0" d="m105.42268 432.7034l749.2565 0" fill-rule="evenodd"/><path stroke="#4db6ac" stroke-width="8.0" stroke-linejoin="round" stroke-linecap="butt" d="m105.42268 432.7034l749.2565 0" fill-rule="evenodd"/><path fill="#000000" fill-opacity="0.0" d="m105.42268 416.7034l749.2565 0" fill-rule="evenodd"/><path stroke="#4db6ac" stroke-width="1.0" stroke-linejoin="round" stroke-linecap="butt" d="m105.42268 416.7034l749.2565 0" fill-rule="evenodd"/><path fill="#000000" fill-opacity="0.0" d="m105.42257 183.91223l749.2599 0l0 107.33859l-749.2599 0z" fill-rule="evenodd"/><path fill="#ef6c00" d="m125.638054 239.7677q0 -12.8125 4.3906326 -19.5q4.390625 -6.703125 13.390625 -6.703125q4.671875 0 8.046875 1.84375q3.390625 1.828125 5.546875 5.25q2.171875 3.421875 3.21875 8.28125q1.046875 4.859375 1.046875 10.828125q0 12.8125 -4.5 19.515625q-4.5 6.703125 -13.359375 6.703125q-4.75 0 -8.109375 -1.828125q-3.34375 -1.84375 -5.5 -5.265625q-2.1562576 -3.421875 -3.1718826 -8.28125q-1.0 -4.859375 -1.0 -10.84375zm9.500008 0q0 3.8125 0.421875 7.09375q0.4375 3.28125 1.4375 5.65625q1.015625 2.375 2.5625 3.75q1.546875 1.359375 3.859375 1.359375q4.171875 0 6.25 -4.25q2.09375 -4.25 2.09375 -13.609375q0 -3.671875 -0.4375 -6.9375q-0.421875 -3.28125 -1.390625 -5.6875q-0.96875 -2.421875 -2.5625 -3.828125q-1.578125 -1.40625 -3.953125 -1.40625q-8.28125 0 -8.28125 17.859375zm31.31601 -10.796875l6.40625 0l0.875 4.109375l0.203125 0q1.65625 -2.59375 3.703125 -3.78125q2.0625 -1.1875 5.09375 -1.1875q5.46875 0 8.234375 4.140625q2.78125 4.140625 2.78125 13.78125q0 9.65625 -3.46875 14.8125q-3.453125 5.140625 -10.0 5.140625q-1.734375 0 -2.953125 -0.296875q-1.21875 -0.28125 -2.3125 -0.9375l0 14.625l-8.5625 0l0 -50.40625zm8.5625 27.9375q0.734375 0.71875 1.625 1.078125q0.90625 0.359375 2.34375 0.359375q2.875 0 4.390625 -2.84375q1.515625 -2.84375 1.515625 -9.6875q0 -5.109375 -1.15625 -7.59375q-1.15625 -2.484375 -3.8125 -2.484375q-3.609375 0 -4.90625 4.25l0 16.921875zm47.965256 5.40625q-1.8125 1.578125 -4.90625 2.59375q-3.09375 1.0 -6.46875 1.0q-3.75 0 -6.453125 -1.296875q-2.703125 -1.296875 -4.4375 -3.734375q-1.71875 -2.453125 -2.546875 -5.9375q-0.828125 -3.5 -0.828125 -7.96875q0 -9.71875 3.84375 -14.359375q3.859375 -4.65625 10.703125 -4.65625q2.296875 0 4.453125 0.6875q2.171875 0.6875 3.859375 2.3125q1.703125 1.609375 2.734375 4.3125q1.046875 2.703125 1.046875 6.8125q0 1.578125 -0.1875 3.375q-0.171875 1.796875 -0.53125 3.890625l-17.5 0q0.15625 4.46875 1.875 6.84375q1.734375 2.375 5.546875 2.375q2.296875 0 4.203125 -0.71875q1.921875 -0.71875 2.921875 -1.515625l2.671875 5.984375zm-11.234375 -27.0q-2.734375 0 -4.109375 2.203125q-1.359375 2.1875 -1.578125 6.140625l9.9375 0q0.203125 -4.109375 -0.875 -6.21875q-1.078125 -2.125 -3.375 -2.125zm35.56601 29.65625l0 -21.890625q0 -3.953125 -0.9375 -5.53125q-0.9375 -1.59375 -3.171875 -1.59375q-1.875 0 -3.25 1.15625q-1.359375 1.140625 -1.9375 2.875l0 24.984375l-8.5625 0l0 -36.0l6.84375 0l1.0 4.171875l0.21875 0q1.296875 -2.078125 3.53125 -3.546875q2.234375 -1.484375 5.828125 -1.484375q2.171875 0 3.859375 0.65625q1.6875 0.640625 2.84375 2.125q1.15625 1.46875 1.71875 3.953125q0.578125 2.484375 0.578125 6.15625l0 23.96875l-8.5625 0zm47.009903 -12.953125q0 -2.3125 -1.375 -3.921875q-1.359375 -1.625 -3.40625 -3.0625q-2.046875 -1.453125 -4.46875 -2.953125q-2.40625 -1.515625 -4.46875 -3.53125q-2.046875 -2.015625 -3.421875 -4.75q-1.359375 -2.734375 -1.359375 -6.703125q0 -3.671875 1.109375 -6.21875q1.125 -2.5625 3.0625 -4.171875q1.953125 -1.625 4.609375 -2.375q2.671875 -0.765625 5.6875 -0.765625q3.671875 0 6.84375 0.71875q3.171875 0.71875 5.25 1.9375l-2.796875 8.0q-1.234375 -0.859375 -3.640625 -1.578125q-2.40625 -0.734375 -5.21875 -0.734375q-2.8125 0 -4.328125 1.15625q-1.5 1.15625 -1.5 3.390625q0 2.015625 1.359375 3.5625q1.375 1.546875 3.421875 2.984375q2.046875 1.4375 4.453125 2.984375q2.421875 1.546875 4.46875 3.609375q2.0625 2.046875 3.421875 4.828125q1.375 2.765625 1.375 6.578125q0 3.8125 -1.125 6.625q-1.109375 2.8125 -3.171875 4.65625q-2.046875 1.828125 -4.921875 2.765625q-2.875 0.9375 -6.40625 0.9375q-4.46875 0 -7.8125 -0.875q-3.34375 -0.859375 -5.140625 -1.9375l2.9375 -8.140625q1.453125 0.859375 3.96875 1.734375q2.515625 0.859375 5.40625 0.859375q7.1875 0 7.1875 -5.609375zm35.07675 11.015625q-1.8125 1.4375 -4.328125 2.15625q-2.515625 0.71875 -5.046875 0.71875q-3.671875 0 -6.15625 -1.328125q-2.46875 -1.34375 -4.0625 -3.828125q-1.578125 -2.484375 -2.265625 -5.96875q-0.6875 -3.5 -0.6875 -7.8125q0 -9.4375 3.375 -14.1875q3.390625 -4.75 9.953125 -4.75q3.234375 0 5.28125 0.578125q2.0625 0.578125 3.640625 1.4375l-2.015625 7.125q-1.296875 -0.640625 -2.484375 -0.96875q-1.1875 -0.328125 -2.84375 -0.328125q-3.015625 0 -4.53125 2.640625q-1.515625 2.625 -1.515625 8.453125q0 4.890625 1.546875 8.0q1.546875 3.09375 4.9375 3.09375q1.796875 0 3.046875 -0.46875q1.265625 -0.46875 2.34375 -1.1875l1.8125 6.625zm4.668762 -34.0625l8.578125 0l0 36.0l-8.578125 0l0 -36.0zm-1.015625 -10.15625q0 -2.15625 1.375 -3.5625q1.375 -1.40625 3.890625 -1.40625q2.515625 0 4.03125 1.375q1.515625 1.359375 1.515625 3.59375q0 2.234375 -1.515625 3.53125q-1.515625 1.296875 -4.03125 1.296875q-2.515625 0 -3.890625 -1.328125q-1.375 -1.328125 -1.375 -3.5zm40.840637 43.5q-1.8125 1.578125 -4.90625 2.59375q-3.09375 1.0 -6.46875 1.0q-3.75 0 -6.453125 -1.296875q-2.703125 -1.296875 -4.4375 -3.734375q-1.71875 -2.453125 -2.546875 -5.9375q-0.828125 -3.5 -0.828125 -7.96875q0 -9.71875 3.84375 -14.359375q3.859375 -4.65625 10.703125 -4.65625q2.296875 0 4.453125 0.6875q2.171875 0.6875 3.859375 2.3125q1.703125 1.609375 2.734375 4.3125q1.046875 2.703125 1.046875 6.8125q0 1.578125 -0.1875 3.375q-0.171875 1.796875 -0.53125 3.890625l-17.5 0q0.15625 4.46875 1.875 6.84375q1.734375 2.375 5.546875 2.375q2.296875 0 4.203125 -0.71875q1.921875 -0.71875 2.921875 -1.515625l2.671875 5.984375zm-11.234375 -27.0q-2.734375 0 -4.109375 2.203125q-1.359375 2.1875 -1.578125 6.140625l9.9375 0q0.203125 -4.109375 -0.875 -6.21875q-1.078125 -2.125 -3.375 -2.125zm35.56604 29.65625l0 -21.890625q0 -3.953125 -0.9375 -5.53125q-0.9375 -1.59375 -3.171875 -1.59375q-1.875 0 -3.25 1.15625q-1.359375 1.140625 -1.9375 2.875l0 24.984375l-8.5625 0l0 -36.0l6.84375 0l1.0 4.171875l0.21875 0q1.296875 -2.078125 3.53125 -3.546875q2.234375 -1.484375 5.828125 -1.484375q2.171875 0 3.859375 0.65625q1.6875 0.640625 2.84375 2.125q1.15625 1.46875 1.71875 3.953125q0.578125 2.484375 0.578125 6.15625l0 23.96875l-8.5625 0zm35.718628 -1.9375q-1.8125 1.4375 -4.328125 2.15625q-2.515625 0.71875 -5.046875 0.71875q-3.671875 0 -6.15625 -1.328125q-2.46875 -1.34375 -4.0625 -3.828125q-1.578125 -2.484375 -2.265625 -5.96875q-0.6875 -3.5 -0.6875 -7.8125q0 -9.4375 3.375 -14.1875q3.390625 -4.75 9.953125 -4.75q3.234375 0 5.28125 0.578125q2.0625 0.578125 3.640625 1.4375l-2.015625 7.125q-1.296875 -0.640625 -2.484375 -0.96875q-1.1875 -0.328125 -2.84375 -0.328125q-3.015625 0 -4.53125 2.640625q-1.515625 2.625 -1.515625 8.453125q0 4.890625 1.546875 8.0q1.546875 3.09375 4.9375 3.09375q1.796875 0 3.046875 -0.46875q1.265625 -0.46875 2.34375 -1.1875l1.8125 6.625zm27.357758 -0.71875q-1.8125 1.578125 -4.90625 2.59375q-3.09375 1.0 -6.46875 1.0q-3.75 0 -6.453125 -1.296875q-2.703125 -1.296875 -4.4375 -3.734375q-1.71875 -2.453125 -2.546875 -5.9375q-0.828125 -3.5 -0.828125 -7.96875q0 -9.71875 3.84375 -14.359375q3.859375 -4.65625 10.703125 -4.65625q2.296875 0 4.453125 0.6875q2.171875 0.6875 3.859375 2.3125q1.703125 1.609375 2.734375 4.3125q1.046875 2.703125 1.046875 6.8125q0 1.578125 -0.1875 3.375q-0.171875 1.796875 -0.53125 3.890625l-17.5 0q0.15625 4.46875 1.875 6.84375q1.734375 2.375 5.546875 2.375q2.296875 0 4.203125 -0.71875q1.921875 -0.71875 2.921875 -1.515625l2.671875 5.984375zm-11.234375 -27.0q-2.734375 0 -4.109375 2.203125q-1.359375 2.1875 -1.578125 6.140625l9.9375 0q0.203125 -4.109375 -0.875 -6.21875q-1.078125 -2.125 -3.375 -2.125zm33.185394 -6.34375l8.578125 0l0 36.0l-8.578125 0l0 -36.0zm-1.015625 -10.15625q0 -2.15625 1.375 -3.5625q1.375 -1.40625 3.890625 -1.40625q2.515625 0 4.03125 1.375q1.515625 1.359375 1.515625 3.59375q0 2.234375 -1.515625 3.53125q-1.515625 1.296875 -4.03125 1.296875q-2.515625 0 -3.890625 -1.328125q-1.375 -1.328125 -1.375 -3.5zm34.35623 46.15625l0 -21.890625q0 -3.953125 -0.9375 -5.53125q-0.9375 -1.59375 -3.171875 -1.59375q-1.8749695 0 -3.2499695 1.15625q-1.359375 1.140625 -1.9375 2.875l0 24.984375l-8.5625 0l0 -36.0l6.84375 0l1.0 4.171875l0.21875 0q1.296875 -2.078125 3.53125 -3.546875q2.2343445 -1.484375 5.8280945 -1.484375q2.171875 0 3.859375 0.65625q1.6875 0.640625 2.84375 2.125q1.15625 1.46875 1.71875 3.953125q0.578125 2.484375 0.578125 6.15625l0 23.96875l-8.5625 0zm47.00995 -12.953125q0 -2.3125 -1.375 -3.921875q-1.359375 -1.625 -3.40625 -3.0625q-2.046875 -1.453125 -4.46875 -2.953125q-2.40625 -1.515625 -4.46875 -3.53125q-2.046875 -2.015625 -3.421875 -4.75q-1.359375 -2.734375 -1.359375 -6.703125q0 -3.671875 1.109375 -6.21875q1.125 -2.5625 3.0625 -4.171875q1.953125 -1.625 4.609375 -2.375q2.671875 -0.765625 5.6875 -0.765625q3.671875 0 6.84375 0.71875q3.171875 0.71875 5.25 1.9375l-2.796875 8.0q-1.234375 -0.859375 -3.640625 -1.578125q-2.40625 -0.734375 -5.21875 -0.734375q-2.8125 0 -4.328125 1.15625q-1.5 1.15625 -1.5 3.390625q0 2.015625 1.359375 3.5625q1.375 1.546875 3.421875 2.984375q2.046875 1.4375 4.453125 2.984375q2.421875 1.546875 4.46875 3.609375q2.0625 2.046875 3.421875 4.828125q1.375 2.765625 1.375 6.578125q0 3.8125 -1.125 6.625q-1.109375 2.8125 -3.171875 4.65625q-2.046875 1.828125 -4.921875 2.765625q-2.875 0.9375 -6.40625 0.9375q-4.46875 0 -7.8125 -0.875q-3.34375 -0.859375 -5.140625 -1.9375l2.9375 -8.140625q1.453125 0.859375 3.96875 1.734375q2.515625 0.859375 5.40625 0.859375q7.1875 0 7.1875 -5.609375zm38.170532 10.296875q-1.8125 1.578125 -4.90625 2.59375q-3.09375 1.0 -6.46875 1.0q-3.75 0 -6.453125 -1.296875q-2.703125 -1.296875 -4.4375 -3.734375q-1.71875 -2.453125 -2.546875 -5.9375q-0.828125 -3.5 -0.828125 -7.96875q0 -9.71875 3.84375 -14.359375q3.859375 -4.65625 10.703125 -4.65625q2.296875 0 4.453125 0.6875q2.171875 0.6875 3.859375 2.3125q1.703125 1.609375 2.734375 4.3125q1.046875 2.703125 1.046875 6.8125q0 1.578125 -0.1875 3.375q-0.171875 1.796875 -0.53125 3.890625l-17.5 0q0.15625 4.46875 1.875 6.84375q1.734375 2.375 5.546875 2.375q2.296875 0 4.203125 -0.71875q1.921875 -0.71875 2.921875 -1.515625l2.671875 5.984375zm-11.234375 -27.0q-2.734375 0 -4.109375 2.203125q-1.359375 2.1875 -1.578125 6.140625l9.9375 0q0.203125 -4.109375 -0.875 -6.21875q-1.078125 -2.125 -3.375 -2.125zm18.425354 -6.34375l8.578125 0l0 36.0l-8.578125 0l0 -36.0zm-1.015625 -10.15625q0 -2.15625 1.375 -3.5625q1.375 -1.40625 3.890625 -1.40625q2.515625 0 4.03125 1.375q1.515625 1.359375 1.515625 3.59375q0 2.234375 -1.515625 3.53125q-1.515625 1.296875 -4.03125 1.296875q-2.515625 0 -3.890625 -1.328125q-1.375 -1.328125 -1.375 -3.5zm28.590637 36.578125q0 -1.515625 -0.96875 -2.546875q-0.96875 -1.046875 -2.484375 -1.9375q-1.515625 -0.90625 -3.203125 -1.84375q-1.6875 -0.9375 -3.203125 -2.296875q-1.515625 -1.375 -2.484375 -3.3125q-0.96875 -1.953125 -0.96875 -4.90625q0 -5.046875 2.734375 -7.78125q2.734375 -2.734375 8.0625 -2.734375q3.171875 0 5.96875 0.6875q2.8125 0.6875 4.46875 1.6875l-2.015625 6.625q-1.359375 -0.578125 -3.3125 -1.109375q-1.9375 -0.546875 -3.8125 -0.546875q-3.53125 0 -3.53125 2.953125q0 1.375 0.96875 2.28125q0.984375 0.890625 2.484375 1.75q1.515625 0.859375 3.203125 1.796875q1.703125 0.9375 3.203125 2.34375q1.515625 1.40625 2.484375 3.421875q0.984375 2.015625 0.984375 4.96875q0 4.96875 -3.03125 8.0q-3.015625 3.015625 -9.0 3.015625q-2.953125 0 -5.796875 -0.71875q-2.84375 -0.71875 -4.5625 -1.875l2.375 -6.90625q1.5 0.859375 3.484375 1.515625q1.984375 0.640625 4.140625 0.640625q1.65625 0 2.734375 -0.75q1.078125 -0.765625 1.078125 -2.421875zm29.746887 9.578125l0 -20.953125q0 -4.53125 -0.734375 -6.296875q-0.71875 -1.765625 -2.796875 -1.765625q-1.734375 0 -2.859375 1.125q-1.109375 1.109375 -1.6875 2.6875l0 25.203125l-8.5625 0l0 -36.0l6.625 0l1.078125 4.3125l0.21875 0q1.375 -2.21875 3.421875 -3.6875q2.046875 -1.484375 5.4375 -1.484375q2.8125 0 4.5625 1.21875q1.765625 1.21875 2.78125 4.328125q1.359375 -2.59375 3.59375 -4.0625q2.234375 -1.484375 5.265625 -1.484375q2.375 0 4.0625 0.609375q1.6875 0.609375 2.734375 2.125q1.046875 1.515625 1.546875 4.140625q0.5 2.625 0.5 6.65625l0 23.328125l-8.5625 0l0 -21.890625q0 -3.671875 -0.65625 -5.390625q-0.640625 -1.734375 -2.875 -1.734375q-1.796875 0 -2.921875 1.046875q-1.109375 1.046875 -1.609375 2.84375l0 25.125l-8.5625 0zm29.798584 -18.0q0 -9.578125 3.734375 -14.25q3.75 -4.6875 10.453125 -4.6875q7.203125 0 10.71875 4.75q3.53125 4.75 3.53125 14.1875q0 9.640625 -3.75 14.296875q-3.734375 4.640625 -10.5 4.640625q-14.1875 0 -14.1875 -18.9375zm8.859375 0q0 5.40625 1.21875 8.359375q1.234375 2.9375 4.109375 2.9375q2.734375 0 4.0625 -2.546875q1.34375 -2.5625 1.34375 -8.75q0 -5.546875 -1.234375 -8.421875q-1.21875 -2.875 -4.171875 -2.875q-2.515625 0 -3.921875 2.5625q-1.40625 2.546875 -1.40625 8.734375zm33.196167 6.34375q0 2.515625 0.5 3.59375q0.5 1.078125 1.65625 1.078125q0.640625 0 1.328125 -0.140625q0.6875 -0.140625 1.546875 -0.5l0.796875 6.90625q-0.859375 0.578125 -2.953125 1.078125q-2.09375 0.5 -4.25 0.5q-3.59375 0 -5.40625 -1.796875q-1.796875 -1.796875 -1.796875 -6.125l0 -43.34375l8.578125 0l0 38.75zm7.4803467 -6.34375q0 -9.578125 3.734375 -14.25q3.75 -4.6875 10.453125 -4.6875q7.203125 0 10.71875 4.75q3.53125 4.75 3.53125 14.1875q0 9.640625 -3.75 14.296875q-3.734375 4.640625 -10.5 4.640625q-14.1875 0 -14.1875 -18.9375zm8.859375 0q0 5.40625 1.21875 8.359375q1.234375 2.9375 4.109375 2.9375q2.734375 0 4.0625 -2.546875q1.34375 -2.5625 1.34375 -8.75q0 -5.546875 -1.234375 -8.421875q-1.21875 -2.875 -4.171875 -2.875q-2.515625 0 -3.921875 2.5625q-1.40625 2.546875 -1.40625 8.734375zm50.25879 18.0q0 7.84375 -3.609375 11.546875q-3.59375 3.71875 -10.0 3.71875q-4.46875 0 -6.984375 -0.6875q-2.515625 -0.6875 -3.890625 -1.46875l1.796875 -7.28125q1.59375 0.65625 3.421875 1.21875q1.84375 0.578125 4.359375 0.578125q3.671875 0 5.078125 -1.984375q1.40625 -1.96875 1.40625 -6.0l0 -1.9375l-0.21875 0q-1.015625 1.4375 -2.703125 2.15625q-1.6875 0.71875 -4.359375 0.71875q-5.6875 0 -8.53125 -4.28125q-2.84375 -4.28125 -2.84375 -13.578125q0 -10.0 3.921875 -14.75q3.921875 -4.765625 11.203125 -4.765625q3.890625 0 6.984375 0.625q3.09375 0.609375 4.96875 1.46875l0 34.703125zm-13.328125 -6.765625q1.953125 0 3.0625 -0.9375q1.125 -0.9375 1.6875 -2.671875l0 -18.0q-0.78125 -0.359375 -1.765625 -0.5625q-0.96875 -0.21875 -2.265625 -0.21875q-2.65625 0 -4.140625 2.59375q-1.46875 2.59375 -1.46875 8.921875q0 10.875 4.890625 10.875zm30.958496 -9.0l0.9375 5.609375l0.359375 0l0.65625 -5.6875l4.171875 -20.15625l8.78125 0l-9.0 32.46875q-1.21875 4.25 -2.296875 7.625q-1.078125 3.390625 -2.3125 5.765625q-1.21875 2.375 -2.765625 3.640625q-1.546875 1.265625 -3.703125 1.265625q-1.515625 0 -2.921875 -0.265625q-1.40625 -0.25 -2.40625 -0.8125l1.4375 -7.34375q0.9375 0.359375 1.90625 0.3125q0.96875 -0.03125 1.796875 -0.71875q0.828125 -0.6875 1.46875 -2.125q0.65625 -1.4375 1.09375 -3.8125l-12.53125 -36.0l10.296875 0l5.03125 20.234375z" fill-rule="nonzero"/><path fill="#000000" fill-opacity="0.0" d="m224.38058 299.2167l511.3386 0l0 83.212585l-511.3386 0z" fill-rule="evenodd"/><path fill="#695d46" d="m262.43164 332.0247l-5.9375 -15.671875l-0.09375 0q0.046875 0.5 0.078125 1.21875q0.03125 0.703125 0.046875 1.546875q0.03125 0.84375 0.03125 1.71875l0 11.1875l-1.9062347 0l0 -17.703125l3.0468597 0l5.609375 14.71875l0.078125 0l5.703125 -14.71875l3.015625 0l0 17.703125l-2.03125 0l0 -11.328125q0 -0.796875 0.015625 -1.578125q0.03125 -0.796875 0.0625 -1.5q0.046875 -0.71875 0.078125 -1.234375l-0.09375 0l-6.015625 15.640625l-1.6875 0zm19.177673 -13.484375q2.375 0 3.515625 1.0625q1.15625 1.0625 1.15625 3.40625l0 9.015625l-1.453125 0l-0.390625 -1.96875l-0.09375 0q-0.5625 0.734375 -1.171875 1.234375q-0.59375 0.484375 -1.390625 0.734375q-0.796875 0.234375 -1.953125 0.234375q-1.203125 0 -2.140625 -0.421875q-0.9375 -0.421875 -1.484375 -1.28125q-0.53125 -0.859375 -0.53125 -2.171875q0 -1.984375 1.5625 -3.046875q1.578125 -1.078125 4.796875 -1.171875l2.296875 -0.09375l0 -0.8125q0 -1.71875 -0.75 -2.40625q-0.734375 -0.6875 -2.078125 -0.6875q-1.03125 0 -1.984375 0.296875q-0.9375 0.296875 -1.78125 0.71875l-0.625 -1.53125q0.890625 -0.453125 2.046875 -0.78125q1.171875 -0.328125 2.453125 -0.328125zm2.6875 6.953125l-2.015625 0.078125q-2.484375 0.09375 -3.5 0.8125q-1.015625 0.71875 -1.015625 2.015625q0 1.140625 0.6875 1.6875q0.6875 0.546875 1.828125 0.546875q1.765625 0 2.890625 -0.984375q1.125 -0.984375 1.125 -2.9375l0 -1.21875zm12.169342 -6.984375q0.390625 0 0.828125 0.046875q0.4375 0.046875 0.78125 0.109375l-0.265625 1.875q-0.328125 -0.09375 -0.734375 -0.140625q-0.390625 -0.046875 -0.734375 -0.046875q-0.796875 0 -1.515625 0.328125q-0.703125 0.3125 -1.234375 0.921875q-0.53125 0.59375 -0.84375 1.4375q-0.296875 0.828125 -0.296875 1.859375l0 7.125l-2.015625 0l0 -13.265625l1.671875 0l0.203125 2.4375l0.09375 0q0.40625 -0.734375 0.984375 -1.34375q0.59375 -0.609375 1.359375 -0.96875q0.765625 -0.375 1.71875 -0.375zm6.1030273 0.25l0 13.265625l-2.0 0l0 -13.265625l2.0 0zm-0.984375 -4.96875q0.5 0 0.859375 0.328125q0.359375 0.3125 0.359375 0.984375q0 0.671875 -0.359375 1.0q-0.359375 0.328125 -0.859375 0.328125q-0.515625 0 -0.859375 -0.328125q-0.34375 -0.328125 -0.34375 -1.0q0 -0.671875 0.34375 -0.984375q0.34375 -0.328125 0.859375 -0.328125zm11.525391 4.71875q2.359375 0 3.5625 1.15625q1.21875 1.15625 1.21875 3.71875l0 8.640625l-1.984375 0l0 -8.515625q0 -1.65625 -0.765625 -2.46875q-0.75 -0.828125 -2.3125 -0.828125q-2.203125 0 -3.109375 1.25q-0.890625 1.234375 -0.890625 3.609375l0 6.953125l-2.0 0l0 -13.265625l1.609375 0l0.3125 1.90625l0.109375 0q0.421875 -0.703125 1.078125 -1.171875q0.65625 -0.484375 1.453125 -0.734375q0.8125 -0.25 1.71875 -0.25zm14.0355835 0q1.6875 0 2.890625 0.75q1.21875 0.75 1.859375 2.109375q0.640625 1.34375 0.640625 3.15625l0 1.234375l-9.15625 0q0.03125 2.34375 1.15625 3.5625q1.125 1.21875 3.171875 1.21875q1.265625 0 2.234375 -0.21875q0.96875 -0.234375 2.0 -0.6875l0 1.765625q-1.0 0.453125 -1.984375 0.65625q-0.984375 0.203125 -2.328125 0.203125q-1.921875 0 -3.34375 -0.765625q-1.421875 -0.78125 -2.21875 -2.296875q-0.78125 -1.515625 -0.78125 -3.703125q0 -2.15625 0.71875 -3.71875q0.734375 -1.5625 2.046875 -2.40625q1.3125 -0.859375 3.09375 -0.859375zm-0.03125 1.65625q-1.609375 0 -2.5625 1.046875q-0.953125 1.046875 -1.140625 2.9375l7.015625 0q0 -1.1875 -0.359375 -2.078125q-0.359375 -0.90625 -1.09375 -1.40625q-0.71875 -0.5 -1.859375 -0.5zm29.646667 2.84375q0 2.984375 -1.09375 5.0q-1.09375 2.0 -3.15625 3.015625q-2.0625 1.0 -5.0 1.0l-4.8125 0l0 -17.703125l5.34375 0q2.703125 0 4.640625 0.984375q1.953125 0.984375 3.015625 2.921875q1.0625 1.9375 1.0625 4.78125zm-2.171875 0.0625q0 -2.375 -0.796875 -3.921875q-0.796875 -1.5625 -2.328125 -2.3125q-1.53125 -0.765625 -3.734375 -0.765625l-2.96875 0l0 14.1875l2.5 0q3.65625 0 5.484375 -1.796875q1.84375 -1.8125 1.84375 -5.390625zm10.914124 -4.5625q1.6875 0 2.890625 0.75q1.21875 0.75 1.859375 2.109375q0.640625 1.34375 0.640625 3.15625l0 1.234375l-9.15625 0q0.03125 2.34375 1.15625 3.5625q1.125 1.21875 3.171875 1.21875q1.265625 0 2.234375 -0.21875q0.96875 -0.234375 2.0 -0.6875l0 1.765625q-1.0 0.453125 -1.984375 0.65625q-0.984375 0.203125 -2.328125 0.203125q-1.921875 0 -3.34375 -0.765625q-1.421875 -0.78125 -2.21875 -2.296875q-0.78125 -1.515625 -0.78125 -3.703125q0 -2.15625 0.71875 -3.71875q0.734375 -1.5625 2.046875 -2.40625q1.3125 -0.859375 3.09375 -0.859375zm-0.03125 1.65625q-1.609375 0 -2.5625 1.046875q-0.953125 1.046875 -1.140625 2.9375l7.015625 0q0 -1.1875 -0.359375 -2.078125q-0.359375 -0.90625 -1.09375 -1.40625q-0.71875 -0.5 -1.859375 -0.5zm15.127167 -1.65625q2.359375 0 3.5625 1.15625q1.21875 1.15625 1.21875 3.71875l0 8.640625l-1.984375 0l0 -8.515625q0 -1.65625 -0.765625 -2.46875q-0.75 -0.828125 -2.3125 -0.828125q-2.203125 0 -3.109375 1.25q-0.890625 1.234375 -0.890625 3.609375l0 6.953125l-2.0 0l0 -13.265625l1.609375 0l0.3125 1.90625l0.109375 0q0.421875 -0.703125 1.078125 -1.171875q0.65625 -0.484375 1.453125 -0.734375q0.8125 -0.25 1.71875 -0.25zm20.363708 6.859375q0 1.625 -0.421875 2.921875q-0.421875 1.28125 -1.234375 2.171875q-0.796875 0.875 -1.9375 1.34375q-1.125 0.453125 -2.546875 0.453125q-1.328125 0 -2.4375 -0.453125q-1.109375 -0.46875 -1.921875 -1.34375q-0.796875 -0.890625 -1.25 -2.171875q-0.4375 -1.296875 -0.4375 -2.921875q0 -2.1875 0.734375 -3.71875q0.75 -1.53125 2.125 -2.328125q1.375 -0.8125 3.265625 -0.8125q1.828125 0 3.1875 0.8125q1.359375 0.8125 2.109375 2.34375q0.765625 1.53125 0.765625 3.703125zm-10.09375 0q0 1.59375 0.421875 2.765625q0.421875 1.171875 1.296875 1.828125q0.890625 0.640625 2.28125 0.640625q1.375 0 2.265625 -0.640625q0.890625 -0.65625 1.3125 -1.828125q0.4375 -1.171875 0.4375 -2.765625q0 -1.59375 -0.4375 -2.75q-0.421875 -1.15625 -1.3125 -1.78125q-0.875 -0.625 -2.28125 -0.625q-2.0625 0 -3.03125 1.375q-0.953125 1.359375 -0.953125 3.78125zm15.588745 6.65625l-2.015625 0l0 -18.84375l2.015625 0l0 18.84375zm6.2597656 0l-2.015625 0l0 -18.84375l2.015625 0l0 18.84375zm9.353516 -13.515625q1.6875 0 2.890625 0.75q1.21875 0.75 1.859375 2.109375q0.640625 1.34375 0.640625 3.15625l0 1.234375l-9.15625 0q0.03125 2.34375 1.15625 3.5625q1.125 1.21875 3.171875 1.21875q1.265625 0 2.234375 -0.21875q0.96875 -0.234375 2.0 -0.6875l0 1.765625q-1.0 0.453125 -1.984375 0.65625q-0.984375 0.203125 -2.328125 0.203125q-1.921875 0 -3.34375 -0.765625q-1.421875 -0.78125 -2.21875 -2.296875q-0.78125 -1.515625 -0.78125 -3.703125q0 -2.15625 0.71875 -3.71875q0.734375 -1.5625 2.046875 -2.40625q1.3125 -0.859375 3.09375 -0.859375zm-0.03125 1.65625q-1.609375 0 -2.5625 1.046875q-0.953125 1.046875 -1.140625 2.9375l7.015625 0q0 -1.1875 -0.359375 -2.078125q-0.359375 -0.90625 -1.09375 -1.40625q-0.71875 -0.5 -1.859375 -0.5zm20.240387 -1.625q2.375 0 3.515625 1.0625q1.15625 1.0625 1.15625 3.40625l0 9.015625l-1.453125 0l-0.390625 -1.96875l-0.09375 0q-0.5625 0.734375 -1.171875 1.234375q-0.59375 0.484375 -1.390625 0.734375q-0.796875 0.234375 -1.953125 0.234375q-1.203125 0 -2.140625 -0.421875q-0.9375 -0.421875 -1.484375 -1.28125q-0.53125 -0.859375 -0.53125 -2.171875q0 -1.984375 1.5625 -3.046875q1.578125 -1.078125 4.796875 -1.171875l2.296875 -0.09375l0 -0.8125q0 -1.71875 -0.75 -2.40625q-0.734375 -0.6875 -2.078125 -0.6875q-1.03125 0 -1.984375 0.296875q-0.9375 0.296875 -1.78125 0.71875l-0.625 -1.53125q0.890625 -0.453125 2.046875 -0.78125q1.171875 -0.328125 2.453125 -0.328125zm2.6875 6.953125l-2.015625 0.078125q-2.484375 0.09375 -3.5 0.8125q-1.015625 0.71875 -1.015625 2.015625q0 1.140625 0.6875 1.6875q0.6875 0.546875 1.828125 0.546875q1.765625 0 2.890625 -0.984375q1.125 -0.984375 1.125 -2.9375l0 -1.21875zm12.419373 -6.984375q2.359375 0 3.5625 1.15625q1.21875 1.15625 1.21875 3.71875l0 8.640625l-1.984375 0l0 -8.515625q0 -1.65625 -0.765625 -2.46875q-0.75 -0.828125 -2.3125 -0.828125q-2.203125 0 -3.109375 1.25q-0.890625 1.234375 -0.890625 3.609375l0 6.953125l-2.0 0l0 -13.265625l1.609375 0l0.3125 1.90625l0.109375 0q0.421875 -0.703125 1.078125 -1.171875q0.65625 -0.484375 1.453125 -0.734375q0.8125 -0.25 1.71875 -0.25zm13.6449585 13.75q-2.515625 0 -4.0 -1.71875q-1.46875 -1.71875 -1.46875 -5.109375q0 -3.421875 1.5 -5.171875q1.515625 -1.75 4.0 -1.75q1.0625 0 1.84375 0.28125q0.78125 0.28125 1.34375 0.75q0.578125 0.46875 0.96875 1.046875l0.140625 0q-0.046875 -0.375 -0.09375 -1.015625q-0.046875 -0.65625 -0.046875 -1.078125l0 -5.3125l2.015625 0l0 18.84375l-1.625 0l-0.3125 -1.890625l-0.078125 0q-0.375 0.59375 -0.953125 1.078125q-0.578125 0.484375 -1.375 0.765625q-0.78125 0.28125 -1.859375 0.28125zm0.3125 -1.65625q2.125 0 3.0 -1.203125q0.890625 -1.21875 0.890625 -3.609375l0 -0.359375q0 -2.53125 -0.84375 -3.890625q-0.828125 -1.359375 -3.046875 -1.359375q-1.859375 0 -2.78125 1.421875q-0.90625 1.421875 -0.90625 3.890625q0 2.4375 0.90625 3.78125q0.921875 1.328125 2.78125 1.328125zm27.987518 1.421875l-2.1875 -5.625l-7.09375 0l-2.171875 5.625l-2.078125 0l6.921875 -17.78125l1.859375 0l6.875 17.78125l-2.125 0zm-2.796875 -7.453125l-2.078125 -5.578125q-0.078125 -0.21875 -0.25 -0.703125q-0.15625 -0.5 -0.328125 -1.03125q-0.15625 -0.53125 -0.265625 -0.859375q-0.125 0.484375 -0.265625 0.984375q-0.140625 0.484375 -0.28125 0.90625q-0.125 0.421875 -0.21875 0.703125l-2.109375 5.578125l5.796875 0zm9.085907 7.453125l-2.015625 0l0 -18.84375l2.015625 0l0 18.84375zm6.2441406 -13.265625l0 13.265625l-2.0 0l0 -13.265625l2.0 0zm-0.984375 -4.96875q0.5 0 0.859375 0.328125q0.35934448 0.3125 0.35934448 0.984375q0 0.671875 -0.35934448 1.0q-0.359375 0.328125 -0.859375 0.328125q-0.515625 0 -0.859375 -0.328125q-0.34375 -0.328125 -0.34375 -1.0q0 -0.671875 0.34375 -0.984375q0.34375 -0.328125 0.859375 -0.328125zm10.55661 18.46875q-1.796875 0 -3.171875 -0.734375q-1.359375 -0.734375 -2.125 -2.25q-0.765625 -1.515625 -0.765625 -3.8125q0 -2.40625 0.796875 -3.9375q0.8125 -1.53125 2.234375 -2.265625q1.421875 -0.75 3.21875 -0.75q1.0 0 1.921875 0.203125q0.921875 0.203125 1.515625 0.5l-0.59375 1.6875q-0.609375 -0.25 -1.40625 -0.4375q-0.796875 -0.1875 -1.484375 -0.1875q-1.375 0 -2.296875 0.59375q-0.90625 0.59375 -1.359375 1.75q-0.453125 1.140625 -0.453125 2.8125q0 1.625 0.4375 2.765625q0.4375 1.125 1.3125 1.734375q0.890625 0.59375 2.203125 0.59375q1.046875 0 1.890625 -0.21875q0.859375 -0.234375 1.546875 -0.53125l0 1.796875q-0.671875 0.328125 -1.484375 0.5q-0.8125 0.1875 -1.9375 0.1875zm11.674683 -13.75q1.6875 0 2.890625 0.75q1.21875 0.75 1.859375 2.109375q0.640625 1.34375 0.640625 3.15625l0 1.234375l-9.15625 0q0.03125 2.34375 1.15625 3.5625q1.125 1.21875 3.171875 1.21875q1.265625 0 2.234375 -0.21875q0.96875 -0.234375 2.0 -0.6875l0 1.765625q-1.0 0.453125 -1.984375 0.65625q-0.984375 0.203125 -2.328125 0.203125q-1.921875 0 -3.34375 -0.765625q-1.421875 -0.78125 -2.21875 -2.296875q-0.78125 -1.515625 -0.78125 -3.703125q0 -2.15625 0.71875 -3.71875q0.734375 -1.5625 2.046875 -2.40625q1.3125 -0.859375 3.09375 -0.859375zm-0.03125 1.65625q-1.609375 0 -2.5625 1.046875q-0.953125 1.046875 -1.140625 2.9375l7.015625 0q0 -1.1875 -0.359375 -2.078125q-0.359375 -0.90625 -1.09375 -1.40625q-0.71875 -0.5 -1.859375 -0.5zm7.7209473 6.09375l0 -1.796875l6.0 0l0 1.796875l-6.0 0zm20.510315 5.765625l-2.1875 -5.625l-7.09375 0l-2.171875 5.625l-2.078125 0l6.921875 -17.78125l1.859375 0l6.875 17.78125l-2.125 0zm-2.796875 -7.453125l-2.078125 -5.578125q-0.078125 -0.21875 -0.25 -0.703125q-0.15625 -0.5 -0.328125 -1.03125q-0.15625 -0.53125 -0.265625 -0.859375q-0.125 0.484375 -0.265625 0.984375q-0.140625 0.484375 -0.28125 0.90625q-0.125 0.421875 -0.21875 0.703125l-2.109375 5.578125l5.796875 0zm10.7734375 13.40625q-2.625 0 -4.046875 -0.984375q-1.40625 -0.96875 -1.40625 -2.71875q0 -1.25 0.796875 -2.140625q0.796875 -0.875 2.1875 -1.15625q-0.515625 -0.25 -0.890625 -0.734375q-0.359375 -0.484375 -0.359375 -1.109375q0 -0.734375 0.40625 -1.28125q0.40625 -0.546875 1.234375 -1.0625q-1.03125 -0.421875 -1.6875 -1.421875q-0.640625 -1.015625 -0.640625 -2.359375q0 -1.4375 0.59375 -2.4375q0.59375 -1.015625 1.71875 -1.546875q1.125 -0.53125 2.71875 -0.53125q0.34375 0 0.703125 0.03125q0.359375 0.03125 0.6875 0.09375q0.328125 0.046875 0.578125 0.109375l4.546875 0l0 1.296875l-2.453125 0.296875q0.375 0.484375 0.609375 1.15625q0.25 0.65625 0.25 1.46875q0 1.984375 -1.34375 3.15625q-1.34375 1.15625 -3.703125 1.15625q-0.546875 0 -1.140625 -0.09375q-0.59375 0.328125 -0.90625 0.734375q-0.296875 0.390625 -0.296875 0.921875q0 0.375 0.234375 0.609375q0.234375 0.234375 0.6875 0.34375q0.453125 0.09375 1.078125 0.09375l2.328125 0q2.171875 0 3.328125 0.90625q1.15625 0.90625 1.15625 2.65625q0 2.203125 -1.796875 3.375q-1.78125 1.171875 -5.171875 1.171875zm0.0625 -1.5625q1.640625 0 2.71875 -0.34375q1.09375 -0.328125 1.625 -0.953125q0.546875 -0.625 0.546875 -1.484375q0 -0.796875 -0.375 -1.203125q-0.359375 -0.40625 -1.0625 -0.546875q-0.703125 -0.140625 -1.71875 -0.140625l-2.296875 0q-0.890625 0 -1.5625 0.28125q-0.671875 0.28125 -1.03125 0.828125q-0.34375 0.546875 -0.34375 1.34375q0 1.078125 0.90625 1.640625q0.90625 0.578125 2.59375 0.578125zm0.515625 -10.609375q1.4375 0 2.15625 -0.71875q0.734375 -0.734375 0.734375 -2.125q0 -1.5 -0.734375 -2.234375q-0.734375 -0.75 -2.1875 -0.75q-1.375 0 -2.125 0.765625q-0.734375 0.765625 -0.734375 2.25q0 1.359375 0.75 2.09375q0.75 0.71875 2.140625 0.71875zm15.463928 -7.296875q2.359375 0 3.5625 1.15625q1.21875 1.15625 1.21875 3.71875l0 8.640625l-1.984375 0l0 -8.515625q0 -1.65625 -0.765625 -2.46875q-0.75 -0.828125 -2.3125 -0.828125q-2.203125 0 -3.109375 1.25q-0.890625 1.234375 -0.890625 3.609375l0 6.953125l-2.0 0l0 -13.265625l1.609375 0l0.3125 1.90625l0.109375 0q0.421875 -0.703125 1.078125 -1.171875q0.65625 -0.484375 1.453125 -0.734375q0.8125 -0.25 1.71875 -0.25zm14.0355835 0q1.6875 0 2.890625 0.75q1.21875 0.75 1.859375 2.109375q0.640625 1.34375 0.640625 3.15625l0 1.234375l-9.15625 0q0.03125 2.34375 1.15625 3.5625q1.125 1.21875 3.171875 1.21875q1.265625 0 2.234375 -0.21875q0.96875 -0.234375 2.0 -0.6875l0 1.765625q-1.0 0.453125 -1.984375 0.65625q-0.984375 0.203125 -2.328125 0.203125q-1.921875 0 -3.34375 -0.765625q-1.421875 -0.78125 -2.21875 -2.296875q-0.78125 -1.515625 -0.78125 -3.703125q0 -2.15625 0.71875 -3.71875q0.734375 -1.5625 2.046875 -2.40625q1.3125 -0.859375 3.09375 -0.859375zm-0.03125 1.65625q-1.609375 0 -2.5625 1.046875q-0.953125 1.046875 -1.140625 2.9375l7.015625 0q0 -1.1875 -0.359375 -2.078125q-0.359375 -0.90625 -1.09375 -1.40625q-0.71875 -0.5 -1.859375 -0.5zm17.424011 8.234375q0 1.265625 -0.640625 2.140625q-0.625 0.859375 -1.8125 1.296875q-1.171875 0.421875 -2.8125 0.421875q-1.390625 0 -2.40625 -0.21875q-1.015625 -0.203125 -1.78125 -0.609375l0 -1.859375q0.8125 0.40625 1.9375 0.734375q1.125 0.328125 2.296875 0.328125q1.71875 0 2.484375 -0.546875q0.78125 -0.5625 0.78125 -1.53125q0 -0.53125 -0.3125 -0.953125q-0.296875 -0.421875 -1.03125 -0.8125q-0.71875 -0.390625 -2.0 -0.875q-1.28125 -0.484375 -2.203125 -0.953125q-0.921875 -0.484375 -1.4375 -1.171875q-0.5 -0.6875 -0.5 -1.796875q0 -1.671875 1.359375 -2.578125q1.375 -0.90625 3.59375 -0.90625q1.1875 0 2.234375 0.234375q1.046875 0.234375 1.953125 0.640625l-0.671875 1.609375q-0.828125 -0.34375 -1.765625 -0.578125q-0.921875 -0.25 -1.890625 -0.25q-1.390625 0 -2.140625 0.453125q-0.734375 0.453125 -0.734375 1.265625q0 0.609375 0.34375 1.015625q0.34375 0.390625 1.09375 0.75q0.765625 0.34375 2.015625 0.8125q1.25 0.46875 2.15625 0.96875q0.90625 0.484375 1.390625 1.1875q0.5 0.6875 0.5 1.78125zm17.539856 -5.65625l6.1875 0l0 8.59375q-1.390625 0.46875 -2.859375 0.6875q-1.46875 0.234375 -3.28125 0.234375q-2.765625 0 -4.671875 -1.09375q-1.890625 -1.109375 -2.875 -3.140625q-0.96875 -2.046875 -0.96875 -4.84375q0 -2.75 1.078125 -4.796875q1.09375 -2.046875 3.140625 -3.171875q2.046875 -1.140625 4.9375 -1.140625q1.46875 0 2.796875 0.28125q1.328125 0.265625 2.46875 0.75l-0.796875 1.796875q-0.96875 -0.421875 -2.15625 -0.71875q-1.171875 -0.3125 -2.4375 -0.3125q-2.171875 0 -3.71875 0.90625q-1.53125 0.890625 -2.359375 2.53125q-0.8125 1.625 -0.8125 3.875q0 2.203125 0.703125 3.84375q0.71875 1.640625 2.234375 2.5625q1.515625 0.90625 3.90625 0.90625q1.203125 0 2.0625 -0.140625q0.859375 -0.140625 1.5625 -0.34375l0 -5.421875l-4.140625 0l0 -1.84375zm15.1223755 -4.203125q2.375 0 3.515625 1.0625q1.15625 1.0625 1.15625 3.40625l0 9.015625l-1.453125 0l-0.390625 -1.96875l-0.09375 0q-0.5625 0.734375 -1.171875 1.234375q-0.59375 0.484375 -1.390625 0.734375q-0.796875 0.234375 -1.953125 0.234375q-1.203125 0 -2.140625 -0.421875q-0.9375 -0.421875 -1.484375 -1.28125q-0.53125 -0.859375 -0.53125 -2.171875q0 -1.984375 1.5625 -3.046875q1.578125 -1.078125 4.796875 -1.171875l2.296875 -0.09375l0 -0.8125q0 -1.71875 -0.75 -2.40625q-0.734375 -0.6875 -2.078125 -0.6875q-1.03125 0 -1.984375 0.296875q-0.9375 0.296875 -1.78125 0.71875l-0.625 -1.53125q0.890625 -0.453125 2.046875 -0.78125q1.171875 -0.328125 2.453125 -0.328125zm2.6875 6.953125l-2.015625 0.078125q-2.484375 0.09375 -3.5 0.8125q-1.015625 0.71875 -1.015625 2.015625q0 1.140625 0.6875 1.6875q0.6875 0.546875 1.828125 0.546875q1.765625 0 2.890625 -0.984375q1.125 -0.984375 1.125 -2.9375l0 -1.21875zm8.138123 -12.3125l0 4.71875q0 0.8125 -0.046875 1.578125q-0.03125 0.75 -0.0625 1.171875l0.109375 0q0.546875 -0.890625 1.578125 -1.5q1.03125 -0.625 2.625 -0.625q2.5 0 3.984375 1.734375q1.484375 1.71875 1.484375 5.125q0 2.234375 -0.6875 3.78125q-0.671875 1.53125 -1.90625 2.3125q-1.234375 0.78125 -2.921875 0.78125q-1.578125 0 -2.59375 -0.578125q-1.0 -0.59375 -1.546875 -1.4375l-0.15625 0l-0.40625 1.78125l-1.453125 0l0 -18.84375l2.0 0zm3.875 7.03125q-1.4375 0 -2.28125 0.5625q-0.84375 0.5625 -1.21875 1.703125q-0.375 1.125 -0.375 2.84375l0 0.109375q0 2.515625 0.828125 3.84375q0.84375 1.328125 3.046875 1.328125q1.859375 0 2.78125 -1.359375q0.921875 -1.359375 0.921875 -3.875q0 -2.5625 -0.921875 -3.859375q-0.90625 -1.296875 -2.78125 -1.296875zm15.327393 -1.703125q0.390625 0 0.828125 0.046875q0.4375 0.046875 0.78125 0.109375l-0.265625 1.875q-0.328125 -0.09375 -0.734375 -0.140625q-0.390625 -0.046875 -0.734375 -0.046875q-0.796875 0 -1.515625 0.328125q-0.703125 0.3125 -1.234375 0.921875q-0.53125 0.59375 -0.84375 1.4375q-0.296875 0.828125 -0.296875 1.859375l0 7.125l-2.015625 0l0 -13.265625l1.671875 0l0.203125 2.4375l0.09375 0q0.40625 -0.734375 0.984375 -1.34375q0.59375 -0.609375 1.359375 -0.96875q0.765625 -0.375 1.71875 -0.375zm6.1030273 0.25l0 13.265625l-2.0 0l0 -13.265625l2.0 0zm-0.984375 -4.96875q0.5 0 0.859375 0.328125q0.359375 0.3125 0.359375 0.984375q0 0.671875 -0.359375 1.0q-0.359375 0.328125 -0.859375 0.328125q-0.515625 0 -0.859375 -0.328125q-0.34375 -0.328125 -0.34375 -1.0q0 -0.671875 0.34375 -0.984375q0.34375 -0.328125 0.859375 -0.328125zm10.353516 4.71875q1.6875 0 2.890625 0.75q1.21875 0.75 1.859375 2.109375q0.640625 1.34375 0.640625 3.15625l0 1.234375l-9.15625 0q0.03125 2.34375 1.15625 3.5625q1.125 1.21875 3.171875 1.21875q1.265625 0 2.234375 -0.21875q0.96875 -0.234375 2.0 -0.6875l0 1.765625q-1.0 0.453125 -1.984375 0.65625q-0.984375 0.203125 -2.328125 0.203125q-1.921875 0 -3.34375 -0.765625q-1.421875 -0.78125 -2.21875 -2.296875q-0.78125 -1.515625 -0.78125 -3.703125q0 -2.15625 0.71875 -3.71875q0.734375 -1.5625 2.046875 -2.40625q1.3125 -0.859375 3.09375 -0.859375zm-0.03125 1.65625q-1.609375 0 -2.5625 1.046875q-0.953125 1.046875 -1.140625 2.9375l7.015625 0q0 -1.1875 -0.359375 -2.078125q-0.359375 -0.90625 -1.09375 -1.40625q-0.71875 -0.5 -1.859375 -0.5zm10.861511 11.859375l-2.015625 0l0 -18.84375l2.015625 0l0 18.84375z" fill-rule="nonzero"/><path fill="#695d46" d="m440.86456 349.33994q1.578125 0 2.734375 0.546875q1.171875 0.53125 1.8125 1.546875q0.640625 1.015625 0.640625 2.46875q0 1.578125 -0.6875 2.734375q-0.6875 1.140625 -1.984375 1.765625q-1.296875 0.625 -3.09375 0.625q-1.203125 0 -2.25 -0.21875q-1.03125 -0.21875 -1.75 -0.640625l0 -1.671875q0.78125 0.46875 1.875 0.75q1.109375 0.265625 2.140625 0.265625q1.1875 0 2.0625 -0.375q0.890625 -0.375 1.375 -1.140625q0.5 -0.765625 0.5 -1.9375q0 -1.546875 -0.953125 -2.375q-0.953125 -0.84375 -2.984375 -0.84375q-0.65625 0 -1.453125 0.109375q-0.78125 0.09375 -1.28125 0.21875l-0.890625 -0.578125l0.59375 -7.265625l7.703125 0l0 1.609375l-6.203125 0l-0.390625 4.671875q0.40625 -0.078125 1.03125 -0.171875q0.640625 -0.09375 1.453125 -0.09375zm14.150421 -6.015625l-5.765625 15.484375l-1.734375 0l5.78125 -15.484375l1.71875 0zm11.468414 6.59375q0 1.421875 -0.203125 2.75q-0.1875 1.328125 -0.65625 2.484375q-0.46875 1.15625 -1.28125 2.03125q-0.796875 0.859375 -2.015625 1.359375q-1.21875 0.484375 -2.890625 0.484375q-0.453125 0 -1.046875 -0.0625q-0.578125 -0.046875 -0.953125 -0.15625l0 -1.53125q0.390625 0.140625 0.921875 0.21875q0.53125 0.078125 1.046875 0.078125q1.96875 0 3.09375 -0.84375q1.140625 -0.859375 1.640625 -2.3125q0.5 -1.46875 0.5625 -3.3125l-0.125 0q-0.3125 0.515625 -0.828125 0.953125q-0.515625 0.421875 -1.25 0.6875q-0.734375 0.25 -1.703125 0.25q-1.34375 0 -2.34375 -0.546875q-1.0 -0.5625 -1.5625 -1.609375q-0.546875 -1.046875 -0.546875 -2.53125q0 -1.59375 0.609375 -2.765625q0.609375 -1.171875 1.703125 -1.796875q1.109375 -0.640625 2.59375 -0.640625q1.140625 0 2.09375 0.4375q0.953125 0.421875 1.65625 1.296875q0.71875 0.859375 1.09375 2.140625q0.390625 1.265625 0.390625 2.9375zm-5.234375 -5.328125q-1.40625 0 -2.28125 0.921875q-0.875 0.921875 -0.875 2.78125q0 1.53125 0.75 2.421875q0.765625 0.890625 2.328125 0.890625q1.078125 0 1.859375 -0.421875q0.796875 -0.4375 1.21875 -1.109375q0.4375 -0.671875 0.4375 -1.375q0 -0.6875 -0.21875 -1.40625q-0.203125 -0.71875 -0.625 -1.328125q-0.421875 -0.609375 -1.0625 -0.984375q-0.640625 -0.390625 -1.53125 -0.390625zm14.119171 -1.265625l-5.765625 15.484375l-1.734375 0l5.78125 -15.484375l1.71875 0zm11.45282 15.484375l-10.1562805 0l0 -1.46875l4.1406555 -4.203125q1.15625 -1.171875 1.9375 -2.078125q0.796875 -0.90625 1.203125 -1.796875q0.421875 -0.890625 0.421875 -1.9375q0 -1.3125 -0.78125 -2.0q-0.765625 -0.703125 -2.046875 -0.703125q-1.109375 0 -1.9687805 0.390625q-0.859375 0.375 -1.75 1.0625l-0.953125 -1.1875q0.625 -0.515625 1.34375 -0.90625q0.71875 -0.40625 1.546875 -0.640625q0.8437805 -0.234375 1.7812805 -0.234375q1.4375 0 2.46875 0.5q1.046875 0.5 1.609375 1.421875q0.5625 0.921875 0.5625 2.1875q0 1.21875 -0.484375 2.28125q-0.484375 1.046875 -1.375 2.09375q-0.875 1.03125 -2.046875 2.171875l-3.3750305 3.359375l0 0.078125l7.9219055 0l0 1.609375zm12.478516 -7.765625q0 1.890625 -0.28125 3.375q-0.28125 1.484375 -0.90625 2.515625q-0.609375 1.015625 -1.59375 1.5625q-0.96875 0.53125 -2.328125 0.53125q-1.734375 0 -2.859375 -0.9375q-1.125 -0.953125 -1.6875 -2.734375q-0.546875 -1.78125 -0.546875 -4.3125q0 -2.46875 0.5 -4.25q0.5 -1.796875 1.625 -2.75q1.125 -0.953125 2.96875 -0.953125q1.75 0 2.875 0.953125q1.140625 0.9375 1.6875 2.71875q0.546875 1.78125 0.546875 4.28125zm-8.4375 0q0 2.15625 0.328125 3.609375q0.328125 1.4375 1.0625 2.15625q0.734375 0.703125 1.9375 0.703125q1.1875 0 1.921875 -0.703125q0.75 -0.71875 1.078125 -2.15625q0.328125 -1.4375 0.328125 -3.609375q0 -2.125 -0.328125 -3.5625q-0.328125 -1.4375 -1.0625 -2.15625q-0.71875 -0.734375 -1.9375 -0.734375q-1.21875 0 -1.953125 0.734375q-0.734375 0.71875 -1.0625 2.15625q-0.3125 1.4375 -0.3125 3.5625zm20.759827 7.765625l-10.15625 0l0 -1.46875l4.140625 -4.203125q1.15625 -1.171875 1.9375 -2.078125q0.796875 -0.90625 1.203125 -1.796875q0.421875 -0.890625 0.421875 -1.9375q0 -1.3125 -0.78125 -2.0q-0.765625 -0.703125 -2.046875 -0.703125q-1.109375 0 -1.96875 0.390625q-0.859375 0.375 -1.75 1.0625l-0.953125 -1.1875q0.625 -0.515625 1.34375 -0.90625q0.71875 -0.40625 1.546875 -0.640625q0.84375 -0.234375 1.78125 -0.234375q1.4375 0 2.46875 0.5q1.046875 0.5 1.609375 1.421875q0.5625 0.921875 0.5625 2.1875q0 1.21875 -0.484375 2.28125q-0.484375 1.046875 -1.375 2.09375q-0.875 1.03125 -2.046875 2.171875l-3.375 3.359375l0 0.078125l7.921875 0l0 1.609375zm11.822235 -11.875q0 1.046875 -0.40625 1.8125q-0.390625 0.75 -1.125 1.234375q-0.71875 0.484375 -1.6875 0.671875l0 0.09375q1.84375 0.21875 2.765625 1.171875q0.9375 0.953125 0.9375 2.5q0 1.34375 -0.640625 2.390625q-0.625 1.03125 -1.921875 1.625q-1.296875 0.59375 -3.328125 0.59375q-1.21875 0 -2.265625 -0.203125q-1.046875 -0.203125 -2.0 -0.65625l0 -1.640625q0.96875 0.46875 2.09375 0.75q1.140625 0.265625 2.203125 0.265625q2.109375 0 3.046875 -0.84375q0.953125 -0.84375 0.953125 -2.3125q0 -1.0 -0.53125 -1.609375q-0.515625 -0.625 -1.5 -0.921875q-0.96875 -0.296875 -2.359375 -0.296875l-1.546875 0l0 -1.5l1.5625 0q1.265625 0 2.140625 -0.359375q0.875 -0.375 1.328125 -1.046875q0.46875 -0.671875 0.46875 -1.59375q0 -1.1875 -0.78125 -1.828125q-0.78125 -0.640625 -2.125 -0.640625q-0.828125 0 -1.515625 0.171875q-0.671875 0.171875 -1.265625 0.46875q-0.59375 0.296875 -1.1875 0.6875l-0.890625 -1.203125q0.859375 -0.65625 2.078125 -1.125q1.21875 -0.484375 2.75 -0.484375q2.375 0 3.5625 1.078125q1.1875 1.078125 1.1875 2.75z" fill-rule="nonzero"/><path fill="#000000" fill-opacity="0.0" d="m587.49603 454.2021l372.50397 0l0 42.015747l-372.50397 0z" fill-rule="evenodd"/><path fill="#000000" d="m800.8603 470.95023q1.640625 0 2.484375 0.875q0.84375 0.859375 0.84375 2.75l0 6.546875l-1.5 0l0 -6.46875q0 -1.203125 -0.53125 -1.8125q-0.515625 -0.609375 -1.546875 -0.609375q-1.453125 0 -2.109375 0.84375q-0.65625 0.828125 -0.65625 2.46875l0 5.578125l-1.5 0l0 -6.46875q0 -0.8125 -0.234375 -1.34375q-0.234375 -0.546875 -0.6875 -0.8125q-0.453125 -0.265625 -1.15625 -0.265625q-1.0 0 -1.609375 0.40625q-0.59375 0.40625 -0.859375 1.21875q-0.265625 0.8125 -0.265625 1.984375l0 5.28125l-1.515625 0l0 -9.984375l1.21875 0l0.234375 1.40625l0.078125 0q0.296875 -0.515625 0.75 -0.859375q0.46875 -0.359375 1.03125 -0.546875q0.5625 -0.1875 1.203125 -0.1875q1.125 0 1.890625 0.4375q0.78125 0.421875 1.125 1.28125l0.078125 0q0.5 -0.859375 1.359375 -1.28125q0.859375 -0.4375 1.875 -0.4375zm9.974731 10.359375q-1.890625 0 -3.0 -1.296875q-1.109375 -1.296875 -1.109375 -3.84375q0 -2.578125 1.125 -3.890625q1.140625 -1.328125 3.015625 -1.328125q0.796875 0 1.390625 0.21875q0.59375 0.203125 1.015625 0.5625q0.421875 0.34375 0.71875 0.796875l0.109375 0q-0.03125 -0.28125 -0.078125 -0.765625q-0.03125 -0.5 -0.03125 -0.8125l0 -4.0l1.515625 0l0 14.171875l-1.21875 0l-0.234375 -1.421875l-0.0625 0q-0.28125 0.453125 -0.71875 0.8125q-0.421875 0.359375 -1.03125 0.578125q-0.59375 0.21875 -1.40625 0.21875zm0.25 -1.265625q1.59375 0 2.25 -0.90625q0.671875 -0.90625 0.671875 -2.703125l0 -0.28125q0 -1.90625 -0.640625 -2.921875q-0.625 -1.015625 -2.28125 -1.015625q-1.40625 0 -2.09375 1.078125q-0.6875 1.0625 -0.6875 2.90625q0 1.84375 0.6875 2.84375q0.6875 1.0 2.09375 1.0zm11.46106 -9.09375q1.28125 0 2.1875 0.578125q0.90625 0.5625 1.390625 1.578125q0.484375 1.015625 0.484375 2.375l0 0.9375l-6.890625 0q0.015625 1.75 0.859375 2.671875q0.859375 0.921875 2.390625 0.921875q0.953125 0 1.671875 -0.171875q0.734375 -0.171875 1.53125 -0.515625l0 1.328125q-0.765625 0.34375 -1.515625 0.5q-0.734375 0.15625 -1.75 0.15625q-1.4375 0 -2.515625 -0.59375q-1.0625 -0.59375 -1.65625 -1.71875q-0.59375 -1.140625 -0.59375 -2.796875q0 -1.609375 0.546875 -2.78125q0.546875 -1.1875 1.53125 -1.828125q0.984375 -0.640625 2.328125 -0.640625zm-0.015625 1.25q-1.21875 0 -1.9375 0.796875q-0.71875 0.78125 -0.859375 2.203125l5.296875 0q-0.015625 -0.890625 -0.28125 -1.5625q-0.265625 -0.6875 -0.8125 -1.0625q-0.546875 -0.375 -1.40625 -0.375zm11.382202 -1.25q1.765625 0 2.671875 0.875q0.921875 0.875 0.921875 2.796875l0 6.5l-1.5 0l0 -6.40625q0 -1.25 -0.578125 -1.859375q-0.5625 -0.625 -1.734375 -0.625q-1.65625 0 -2.328125 0.9375q-0.671875 0.9375 -0.671875 2.71875l0 5.234375l-1.515625 0l0 -9.984375l1.21875 0l0.234375 1.4375l0.078125 0q0.3125 -0.53125 0.796875 -0.890625q0.5 -0.359375 1.109375 -0.546875q0.609375 -0.1875 1.296875 -0.1875zm15.316528 5.15625q0 1.234375 -0.328125 2.203125q-0.3125 0.96875 -0.921875 1.640625q-0.59375 0.65625 -1.453125 1.015625q-0.84375 0.34375 -1.921875 0.34375q-1.0 0 -1.828125 -0.34375q-0.828125 -0.359375 -1.4375 -1.015625q-0.609375 -0.671875 -0.953125 -1.640625q-0.328125 -0.96875 -0.328125 -2.203125q0 -1.640625 0.5625 -2.78125q0.5625 -1.15625 1.59375 -1.765625q1.03125 -0.609375 2.453125 -0.609375q1.375 0 2.390625 0.609375q1.03125 0.609375 1.59375 1.765625q0.578125 1.15625 0.578125 2.78125zm-7.59375 0q0 1.203125 0.3125 2.09375q0.328125 0.875 0.984375 1.359375q0.671875 0.484375 1.71875 0.484375q1.03125 0 1.703125 -0.484375q0.671875 -0.484375 0.984375 -1.359375q0.328125 -0.890625 0.328125 -2.09375q0 -1.1875 -0.328125 -2.046875q-0.3125 -0.875 -0.984375 -1.34375q-0.65625 -0.484375 -1.71875 -0.484375q-1.5625 0 -2.28125 1.03125q-0.71875 1.03125 -0.71875 2.84375zm11.7229 5.015625l-1.515625 0l0 -14.171875l1.515625 0l0 14.171875zm4.7095947 0l-1.515625 0l0 -14.171875l1.515625 0l0 14.171875zm7.0377197 -10.171875q1.28125 0 2.1875 0.578125q0.90625 0.5625 1.390625 1.578125q0.484375 1.015625 0.484375 2.375l0 0.9375l-6.890625 0q0.015625 1.75 0.859375 2.671875q0.859375 0.921875 2.390625 0.921875q0.953125 0 1.671875 -0.171875q0.734375 -0.171875 1.53125 -0.515625l0 1.328125q-0.765625 0.34375 -1.515625 0.5q-0.734375 0.15625 -1.75 0.15625q-1.4375 0 -2.515625 -0.59375q-1.0625 -0.59375 -1.65625 -1.71875q-0.59375 -1.140625 -0.59375 -2.796875q0 -1.609375 0.546875 -2.78125q0.546875 -1.1875 1.53125 -1.828125q0.984375 -0.640625 2.328125 -0.640625zm-0.015625 1.25q-1.21875 0 -1.9375 0.796875q-0.71875 0.78125 -0.859375 2.203125l5.296875 0q-0.015625 -0.890625 -0.28125 -1.5625q-0.265625 -0.6875 -0.8125 -1.0625q-0.546875 -0.375 -1.40625 -0.375zm20.710327 2.265625q0 0.875 -0.203125 1.703125q-0.1875 0.8125 -0.59375 1.484375q-0.390625 0.65625 -1.0 1.046875q-0.59375 0.390625 -1.390625 0.390625q-0.859375 0 -1.359375 -0.484375q-0.5 -0.5 -0.59375 -1.171875l-0.078125 0q-0.359375 0.71875 -1.03125 1.1875q-0.65625 0.46875 -1.640625 0.46875q-1.421875 0 -2.1875 -0.9375q-0.765625 -0.953125 -0.765625 -2.515625q0 -1.21875 0.484375 -2.15625q0.484375 -0.953125 1.375 -1.484375q0.890625 -0.546875 2.09375 -0.546875q0.8125 0 1.578125 0.140625q0.765625 0.125 1.21875 0.296875l-0.171875 3.671875q-0.015625 0.328125 -0.03125 0.515625q0 0.171875 0 0.28125q0 0.96875 0.34375 1.3125q0.359375 0.34375 0.859375 0.34375q0.609375 0 1.015625 -0.46875q0.421875 -0.484375 0.640625 -1.28125q0.21875 -0.8125 0.21875 -1.796875q0 -1.75 -0.703125 -2.96875q-0.703125 -1.234375 -1.9375 -1.875q-1.234375 -0.65625 -2.828125 -0.65625q-1.59375 0 -2.828125 0.5q-1.234375 0.5 -2.09375 1.421875q-0.84375 0.921875 -1.28125 2.171875q-0.4375 1.25 -0.4375 2.78125q0 1.859375 0.65625 3.171875q0.65625 1.296875 1.9375 1.96875q1.28125 0.671875 3.125 0.671875q1.109375 0 2.140625 -0.25q1.03125 -0.234375 1.84375 -0.546875l0 1.1875q-0.8125 0.328125 -1.8125 0.546875q-0.984375 0.21875 -2.171875 0.21875q-2.203125 0 -3.765625 -0.828125q-1.546875 -0.828125 -2.375 -2.375q-0.828125 -1.546875 -0.828125 -3.71875q0 -1.75 0.53125 -3.21875q0.546875 -1.484375 1.5625 -2.5625q1.03125 -1.09375 2.484375 -1.6875q1.46875 -0.59375 3.3125 -0.59375q1.953125 0 3.453125 0.8125q1.515625 0.796875 2.375 2.296875q0.859375 1.484375 0.859375 3.53125zm-9.484375 1.203125q0 1.21875 0.46875 1.78125q0.484375 0.5625 1.34375 0.5625q1.0625 0 1.546875 -0.78125q0.5 -0.796875 0.578125 -2.109375l0.109375 -2.375q-0.265625 -0.078125 -0.640625 -0.140625q-0.375 -0.0625 -0.78125 -0.0625q-0.9375 0 -1.515625 0.453125q-0.578125 0.453125 -0.84375 1.15625q-0.265625 0.703125 -0.265625 1.515625zm20.396912 -4.53125l0 9.984375l-1.25 0l-0.21875 -1.40625l-0.078125 0q-0.3125 0.515625 -0.8125 0.875q-0.484375 0.359375 -1.09375 0.53125q-0.609375 0.1875 -1.3125 0.1875q-1.171875 0 -1.984375 -0.375q-0.796875 -0.390625 -1.203125 -1.1875q-0.40625 -0.8125 -0.40625 -2.0625l0 -6.546875l1.53125 0l0 6.4375q0 1.234375 0.5625 1.859375q0.5625 0.609375 1.71875 0.609375q1.109375 0 1.765625 -0.40625q0.671875 -0.421875 0.953125 -1.234375q0.296875 -0.828125 0.296875 -2.015625l0 -5.25l1.53125 0zm11.316528 9.96875l-1.78125 -5.8125q-0.109375 -0.375 -0.21875 -0.734375q-0.109375 -0.359375 -0.203125 -0.6875q-0.078125 -0.34375 -0.140625 -0.625q-0.0625 -0.28125 -0.109375 -0.5l-0.0625 0q-0.046875 0.21875 -0.109375 0.5q-0.0625 0.28125 -0.15625 0.625q-0.078125 0.328125 -0.1875 0.703125q-0.09375 0.375 -0.21875 0.75l-1.859375 5.78125l-1.703125 0l-2.75 -9.984375l1.5625 0l1.4375 5.515625q0.15625 0.546875 0.28125 1.078125q0.140625 0.53125 0.234375 1.0q0.09375 0.46875 0.140625 0.8125l0.0625 0q0.0625 -0.234375 0.125 -0.546875q0.078125 -0.3125 0.15625 -0.671875q0.09375 -0.359375 0.1875 -0.71875q0.109375 -0.375 0.203125 -0.6875l1.84375 -5.78125l1.625 0l1.78125 5.765625q0.140625 0.4375 0.265625 0.921875q0.125 0.46875 0.234375 0.921875q0.109375 0.4375 0.15625 0.78125l0.078125 0q0.03125 -0.3125 0.125 -0.765625q0.109375 -0.453125 0.234375 -1.0q0.140625 -0.546875 0.28125 -1.109375l1.46875 -5.515625l1.53125 0l-2.75 9.984375l-1.765625 0zm6.097351 -0.9375q0 -0.625 0.3125 -0.890625q0.3125 -0.28125 0.765625 -0.28125q0.453125 0 0.765625 0.28125q0.328125 0.265625 0.328125 0.890625q0 0.640625 -0.328125 0.921875q-0.3125 0.28125 -0.765625 0.28125q-0.453125 0 -0.765625 -0.28125q-0.3125 -0.28125 -0.3125 -0.921875zm8.979065 -9.21875q1.28125 0 2.1875 0.578125q0.90625 0.5625 1.390625 1.578125q0.484375 1.015625 0.484375 2.375l0 0.9375l-6.890625 0q0.015625 1.75 0.859375 2.671875q0.859375 0.921875 2.390625 0.921875q0.953125 0 1.671875 -0.171875q0.734375 -0.171875 1.53125 -0.515625l0 1.328125q-0.765625 0.34375 -1.515625 0.5q-0.734375 0.15625 -1.75 0.15625q-1.4375 0 -2.515625 -0.59375q-1.0625 -0.59375 -1.65625 -1.71875q-0.59375 -1.140625 -0.59375 -2.796875q0 -1.609375 0.546875 -2.78125q0.546875 -1.1875 1.53125 -1.828125q0.984375 -0.640625 2.328125 -0.640625zm-0.015625 1.25q-1.21875 0 -1.9375 0.796875q-0.71875 0.78125 -0.859375 2.203125l5.296875 0q-0.015625 -0.890625 -0.28125 -1.5625q-0.265625 -0.6875 -0.8125 -1.0625q-0.546875 -0.375 -1.40625 -0.375zm10.194641 9.109375q-1.890625 0 -3.0 -1.296875q-1.109375 -1.296875 -1.109375 -3.84375q0 -2.578125 1.125 -3.890625q1.140625 -1.328125 3.015625 -1.328125q0.796875 0 1.390625 0.21875q0.59375 0.203125 1.015625 0.5625q0.421875 0.34375 0.71875 0.796875l0.109375 0q-0.03125 -0.28125 -0.078125 -0.765625q-0.03125 -0.5 -0.03125 -0.8125l0 -4.0l1.515625 0l0 14.171875l-1.21875 0l-0.234375 -1.421875l-0.0625 0q-0.28125 0.453125 -0.71875 0.8125q-0.421875 0.359375 -1.03125 0.578125q-0.59375 0.21875 -1.40625 0.21875zm0.25 -1.265625q1.59375 0 2.25 -0.90625q0.671875 -0.90625 0.671875 -2.703125l0 -0.28125q0 -1.90625 -0.640625 -2.921875q-0.625 -1.015625 -2.28125 -1.015625q-1.40625 0 -2.09375 1.078125q-0.6875 1.0625 -0.6875 2.90625q0 1.84375 0.6875 2.84375q0.6875 1.0 2.09375 1.0zm15.867371 -8.90625l0 9.984375l-1.25 0l-0.21875 -1.40625l-0.078125 0q-0.3125 0.515625 -0.8125 0.875q-0.484375 0.359375 -1.09375 0.53125q-0.609375 0.1875 -1.3125 0.1875q-1.171875 0 -1.984375 -0.375q-0.796875 -0.390625 -1.203125 -1.1875q-0.40625 -0.8125 -0.40625 -2.0625l0 -6.546875l1.53125 0l0 6.4375q0 1.234375 0.5625 1.859375q0.5625 0.609375 1.71875 0.609375q1.109375 0 1.765625 -0.40625q0.671875 -0.421875 0.953125 -1.234375q0.296875 -0.828125 0.296875 -2.015625l0 -5.25l1.53125 0z" fill-rule="nonzero"/></g></svg>